<svg id="Capa_1" enable-background="new 0 0 512 512" height="512" viewBox="0 0 512 512" width="512" xmlns="http://www.w3.org/2000/svg"><g><path d="m164.234 347.794c49.35 0 89.499-40.121 89.499-89.436 0-5.523-4.478-10-10-10h-69.499v-69.436c0-5.523-4.478-10-10-10-49.351 0-89.5 40.121-89.5 89.436s40.15 89.436 89.5 89.436zm-10-158.154v68.719c0 5.523 4.478 10 10 10h68.78c-4.867 33.565-33.856 59.436-68.78 59.436-38.322 0-69.5-31.148-69.5-69.436 0-34.897 25.897-63.862 59.5-68.719z"/><path d="m201.669 230.941h79.499c5.522 0 10-4.477 10-10 0-49.315-40.149-89.436-89.499-89.436-5.522 0-10 4.477-10 10v79.436c0 5.523 4.477 10 10 10zm10-78.719c30.333 4.384 54.386 28.415 58.78 58.719h-58.78z"/><path d="m502 5.73h-492c-5.522 0-10 4.477-10 10v53.071c0 5.523 4.478 10 10 10h12.389v306.643c0 19.33 15.722 35.055 35.046 35.055h188.565v13.849c-15.396 4.358-26.707 18.52-26.707 35.27 0 20.21 16.467 36.652 36.707 36.652s36.707-16.442 36.707-36.652c0-16.75-11.311-30.912-26.707-35.27v-13.849h188.563c19.325 0 35.048-15.726 35.048-35.055v-306.643h12.389c5.522 0 10-4.477 10-10v-53.071c0-5.523-4.478-10-10-10zm-229.293 463.888c0 9.182-7.495 16.652-16.707 16.652s-16.707-7.47-16.707-16.652 7.495-16.652 16.707-16.652 16.707 7.47 16.707 16.652zm196.904-84.174c0 8.301-6.75 15.055-15.048 15.055h-397.128c-8.296 0-15.046-6.754-15.046-15.055v-306.643h427.223v306.643zm22.389-326.643h-472v-33.071h472z"/><path d="m325.255 183.468h102.128c5.522 0 10-4.477 10-10s-4.478-10-10-10h-102.128c-5.522 0-10 4.477-10 10s4.477 10 10 10z"/><path d="m325.255 225.213h102.128c5.522 0 10-4.477 10-10s-4.478-10-10-10h-102.128c-5.522 0-10 4.477-10 10s4.477 10 10 10z"/><path d="m285.128 299.255c0 5.523 4.478 10 10 10h132.255c5.522 0 10-4.477 10-10s-4.478-10-10-10h-132.255c-5.523 0-10 4.477-10 10z"/></g></svg>