<svg id="Capa_1" enable-background="new 0 0 512 512" height="512" viewBox="0 0 512 512" width="512" xmlns="http://www.w3.org/2000/svg"><g><path d="m512 61h-181v-61h-150v61h-181v330h213.239l-116.609 93.287 18.74 23.426 125.63-100.504v104.791h30v-104.791l125.63 100.504 18.74-23.426-116.609-93.287h213.239zm-301-31h90v31h-90zm271 331h-452v-270h452z"/><path d="m166 331c57.897 0 105-47.103 105-105s-47.103-105-105-105-105 47.103-105 105 47.103 105 105 105zm73.491-120h-58.491v-58.491c29.344 5.981 52.51 29.147 58.491 58.491zm-88.491-58.491v88.491h88.491c-6.968 34.192-37.271 60-73.491 60-41.355 0-75-33.645-75-75 0-36.219 25.808-66.522 60-73.491z"/><path d="m301 121h150v30h-150z"/><path d="m301 181h150v30h-150z"/><path d="m301 241h150v30h-150z"/><path d="m301 301h150v30h-150z"/></g></svg>