<?xml version="1.0" encoding="UTF-8" standalone="no"?>
<svg
   xmlns:dc="http://purl.org/dc/elements/1.1/"
   xmlns:cc="http://creativecommons.org/ns#"
   xmlns:rdf="http://www.w3.org/1999/02/22-rdf-syntax-ns#"
   xmlns:svg="http://www.w3.org/2000/svg"
   xmlns="http://www.w3.org/2000/svg"
   xmlns:sodipodi="http://sodipodi.sourceforge.net/DTD/sodipodi-0.dtd"
   xmlns:inkscape="http://www.inkscape.org/namespaces/inkscape"
   inkscape:version="1.0 (4035a4f, 2020-05-01)"
   inkscape:export-ydpi="44.75"
   inkscape:export-xdpi="44.75"
   inkscape:export-filename="/Users/ooiwt/Dropbox/nus-unix-workshop/2021-s1/docs/figures/keyboard.png"
   sodipodi:docname="QWERTY_keyboard_diagram.svg"
   id="svg576"
   viewBox="17 17 959.71697 304"
   version="1.1"
   width="1716.0468"
   height="541.15997">
  <metadata
     id="metadata582">
    <rdf:RDF>
      <cc:Work
         rdf:about="">
        <dc:format>image/svg+xml</dc:format>
        <dc:type
           rdf:resource="http://purl.org/dc/dcmitype/StillImage" />
      </cc:Work>
    </rdf:RDF>
  </metadata>
  <defs
     id="defs580" />
  <sodipodi:namedview
     inkscape:current-layer="svg576"
     inkscape:window-maximized="0"
     inkscape:window-y="0"
     inkscape:window-x="0"
     inkscape:cy="-1110.5225"
     inkscape:cx="346.4878"
     inkscape:zoom="0.30574913"
     showgrid="false"
     id="namedview578"
     inkscape:window-height="1440"
     inkscape:window-width="2560"
     inkscape:pageshadow="2"
     inkscape:pageopacity="0"
     guidetolerance="10"
     gridtolerance="10"
     objecttolerance="10"
     borderopacity="1"
     bordercolor="#666666"
     pagecolor="#ffffff" />
  <rect
     id="rect10"
     fill="#ffffff"
     stroke-width="4"
     x="16.851055"
     y="19"
     stroke="#000000"
     width="960"
     height="300" />
  <g
     transform="translate(-1.6749437,-1.6849995)"
     id="g226"
     fill="none"
     stroke="#000000">
    <g
       id="g128"
       stroke-width="4">
      <rect
         id="rect12"
         x="118.53"
         y="40.685001"
         width="40"
         height="40" />
      <rect
         id="rect14"
         x="158.53"
         y="40.685001"
         width="40"
         height="40" />
      <rect
         id="rect16"
         x="198.53"
         y="40.685001"
         width="40"
         height="40" />
      <rect
         id="rect18"
         x="238.53"
         y="40.685001"
         width="40"
         height="40" />
      <rect
         id="rect20"
         x="298.53"
         y="40.685001"
         width="40"
         height="40" />
      <rect
         id="rect22"
         x="378.53"
         y="40.685001"
         width="40"
         height="40" />
      <rect
         id="rect24"
         x="418.53"
         y="40.685001"
         width="40"
         height="40" />
      <rect
         id="rect26"
         x="478.53"
         y="40.685001"
         width="40"
         height="40" />
      <rect
         id="rect28"
         x="558.53003"
         y="40.685001"
         width="40"
         height="40" />
      <rect
         id="rect30"
         x="598.53003"
         y="40.685001"
         width="40"
         height="40" />
      <rect
         id="rect32"
         x="658.53003"
         y="40.685001"
         width="40"
         height="40" />
      <rect
         id="rect34"
         x="738.53003"
         y="40.685001"
         width="40"
         height="40" />
      <rect
         id="rect36"
         x="658.53003"
         y="100.69"
         width="40"
         height="40" />
      <rect
         id="rect38"
         x="738.53003"
         y="100.69"
         width="40"
         height="40" />
      <rect
         id="rect40"
         x="658.53003"
         y="140.69"
         width="40"
         height="40" />
      <rect
         id="rect42"
         x="738.53003"
         y="140.69"
         width="40"
         height="40" />
      <rect
         id="rect44"
         x="658.53003"
         y="260.69"
         width="40"
         height="40" />
      <rect
         id="rect46"
         x="738.53003"
         y="260.69"
         width="40"
         height="40" />
      <rect
         id="rect48"
         x="878.53003"
         y="100.69"
         width="40"
         height="40" />
      <rect
         id="rect50"
         x="918.53003"
         y="100.69"
         width="40"
         height="40" />
      <rect
         id="rect52"
         x="798.53003"
         y="140.69"
         width="40"
         height="40" />
      <rect
         id="rect54"
         x="878.53003"
         y="140.69"
         width="40"
         height="40" />
      <rect
         id="rect56"
         x="918.53003"
         y="140.69"
         width="40"
         height="80" />
      <rect
         id="rect58"
         x="798.53003"
         y="180.69"
         width="40"
         height="40" />
      <rect
         id="rect60"
         x="878.53003"
         y="180.69"
         width="40"
         height="40" />
      <rect
         id="rect62"
         x="798.53003"
         y="220.69"
         width="40"
         height="40" />
      <rect
         id="rect64"
         x="878.53003"
         y="220.69"
         width="40"
         height="40" />
      <rect
         id="rect66"
         x="798.53003"
         y="260.69"
         width="80"
         height="40" />
      <rect
         id="rect68"
         x="878.53003"
         y="260.69"
         width="40"
         height="40" />
      <rect
         id="rect70"
         x="918.53003"
         y="220.69"
         width="40"
         height="80" />
      <rect
         id="rect72"
         x="38.526001"
         y="100.69"
         width="40"
         height="40" />
      <rect
         id="rect74"
         x="78.526001"
         y="100.69"
         width="40"
         height="40" />
      <rect
         id="rect76"
         x="118.53"
         y="100.69"
         width="40"
         height="40" />
      <rect
         id="rect78"
         x="158.53"
         y="100.69"
         width="40"
         height="40" />
      <rect
         id="rect80"
         x="198.53"
         y="100.69"
         width="40"
         height="40" />
      <rect
         id="rect82"
         x="238.53"
         y="100.69"
         width="40"
         height="40" />
      <rect
         id="rect84"
         x="278.53"
         y="100.69"
         width="40"
         height="40" />
      <rect
         id="rect86"
         x="318.53"
         y="100.69"
         width="40"
         height="40" />
      <rect
         id="rect88"
         x="358.53"
         y="100.69"
         width="40"
         height="40" />
      <rect
         id="rect90"
         x="398.53"
         y="100.69"
         width="40"
         height="40" />
      <rect
         id="rect92"
         x="438.53"
         y="100.69"
         width="40"
         height="40" />
      <rect
         id="rect94"
         x="478.53"
         y="100.69"
         width="40"
         height="40" />
      <rect
         id="rect96"
         x="518.53003"
         y="100.69"
         width="40"
         height="40" />
      <rect
         id="rect98"
         x="558.53003"
         y="100.69"
         width="40"
         height="40" />
      <rect
         id="rect100"
         x="598.53003"
         y="100.69"
         width="40"
         height="40" />
      <rect
         id="rect102"
         x="38.526001"
         y="140.69"
         width="60"
         height="40" />
      <rect
         id="rect104"
         x="98.526001"
         y="140.69"
         width="40"
         height="40" />
      <rect
         id="rect106"
         x="138.53"
         y="140.69"
         width="40"
         height="40" />
      <rect
         id="rect108"
         x="178.53"
         y="140.69"
         width="40"
         height="40" />
      <rect
         id="rect110"
         x="218.53"
         y="140.69"
         width="40"
         height="40" />
      <rect
         id="rect112"
         x="258.53"
         y="140.69"
         width="40"
         height="40" />
      <rect
         id="rect114"
         x="298.53"
         y="140.69"
         width="40"
         height="40" />
      <rect
         id="rect116"
         x="338.53"
         y="140.69"
         width="40"
         height="40" />
      <rect
         id="rect118"
         x="378.53"
         y="140.69"
         width="40"
         height="40" />
      <rect
         id="rect120"
         x="418.53"
         y="140.69"
         width="40"
         height="40" />
      <rect
         id="rect122"
         x="458.53"
         y="140.69"
         width="40"
         height="40" />
      <rect
         id="rect124"
         x="498.53"
         y="140.69"
         width="40"
         height="40" />
      <rect
         id="rect126"
         x="538.53003"
         y="140.69"
         width="40"
         height="40" />
    </g>
    <path
       id="path130"
       stroke-width="7.1205"
       transform="matrix(0.56176,0,0,0.56176,14.838,17)"
       d="m 1003.4,220.18 v 71.2 h -35.56 v 71.21 h 142.36 v -71.21 -71.2 z" />
    <g
       id="g224"
       stroke-width="4">
      <rect
         id="rect132"
         x="38.526001"
         y="180.69"
         width="60"
         height="40" />
      <rect
         id="rect134"
         x="118.53"
         y="180.69"
         width="40"
         height="40" />
      <rect
         id="rect136"
         x="158.53"
         y="180.69"
         width="40"
         height="40" />
      <rect
         id="rect138"
         x="198.53"
         y="180.69"
         width="40"
         height="40" />
      <rect
         id="rect140"
         x="238.53"
         y="180.69"
         width="40"
         height="40" />
      <rect
         id="rect142"
         x="278.53"
         y="180.69"
         width="40"
         height="40" />
      <rect
         id="rect144"
         x="318.53"
         y="180.69"
         width="40"
         height="40" />
      <rect
         id="rect146"
         x="358.53"
         y="180.69"
         width="40"
         height="40" />
      <rect
         id="rect148"
         x="398.53"
         y="180.69"
         width="40"
         height="40" />
      <rect
         id="rect150"
         x="438.53"
         y="180.69"
         width="40"
         height="40" />
      <rect
         id="rect152"
         x="478.53"
         y="180.69"
         width="40"
         height="40" />
      <rect
         id="rect154"
         x="518.53003"
         y="180.69"
         width="40"
         height="40" />
      <rect
         id="rect156"
         x="98.526001"
         y="180.69"
         width="20"
         height="40" />
      <rect
         id="rect158"
         x="138.53"
         y="220.69"
         width="40"
         height="40" />
      <rect
         id="rect160"
         x="178.53"
         y="220.69"
         width="40"
         height="40" />
      <rect
         id="rect162"
         x="218.53"
         y="220.69"
         width="40"
         height="40" />
      <rect
         id="rect164"
         x="258.53"
         y="220.69"
         width="40"
         height="40" />
      <rect
         id="rect166"
         x="298.53"
         y="220.69"
         width="40"
         height="40" />
      <rect
         id="rect168"
         x="338.53"
         y="220.69"
         width="40"
         height="40" />
      <rect
         id="rect170"
         x="378.53"
         y="220.69"
         width="40"
         height="40" />
      <rect
         id="rect172"
         x="418.53"
         y="220.69"
         width="40"
         height="40" />
      <rect
         id="rect174"
         x="458.53"
         y="220.69"
         width="40"
         height="40" />
      <rect
         id="rect176"
         x="498.53"
         y="220.69"
         width="40"
         height="40" />
      <rect
         id="rect178"
         x="538.53003"
         y="220.69"
         width="100"
         height="40" />
      <rect
         id="rect180"
         x="38.526001"
         y="220.69"
         width="100"
         height="40" />
      <rect
         id="rect182"
         x="38.526001"
         y="260.69"
         width="40"
         height="40" />
      <rect
         id="rect184"
         x="78.526001"
         y="260.69"
         width="60"
         height="40" />
      <rect
         id="rect186"
         x="138.53"
         y="260.69"
         width="60"
         height="40" />
      <rect
         id="rect188"
         x="198.53"
         y="260.69"
         width="240"
         height="40" />
      <rect
         id="rect190"
         x="438.53"
         y="260.69"
         width="60"
         height="40" />
      <rect
         id="rect192"
         x="498.53"
         y="260.69"
         width="60"
         height="40" />
      <rect
         id="rect194"
         x="558.53003"
         y="260.69"
         width="40"
         height="40" />
      <rect
         id="rect196"
         x="598.53003"
         y="260.69"
         width="40"
         height="40" />
      <rect
         id="rect198"
         x="38.526001"
         y="40.685001"
         width="40"
         height="40" />
      <rect
         id="rect200"
         x="698.53003"
         y="40.685001"
         width="40"
         height="40" />
      <rect
         id="rect202"
         x="698.53003"
         y="140.69"
         width="40"
         height="40" />
      <rect
         id="rect204"
         x="338.53"
         y="40.685001"
         width="40"
         height="40" />
      <rect
         id="rect206"
         x="518.53003"
         y="40.685001"
         width="40"
         height="40" />
      <rect
         id="rect208"
         x="698.53003"
         y="260.69"
         width="40"
         height="40" />
      <rect
         id="rect210"
         x="698.53003"
         y="220.69"
         width="40"
         height="40" />
      <rect
         id="rect212"
         x="838.53003"
         y="220.69"
         width="40"
         height="40" />
      <rect
         id="rect214"
         x="838.53003"
         y="180.69"
         width="40"
         height="40" />
      <rect
         id="rect216"
         x="838.53003"
         y="140.69"
         width="40"
         height="40" />
      <rect
         id="rect218"
         x="838.53003"
         y="100.69"
         width="40"
         height="40" />
      <rect
         id="rect220"
         x="798.53003"
         y="100.69"
         width="40"
         height="40" />
      <rect
         id="rect222"
         x="698.53003"
         y="100.69"
         width="40"
         height="40" />
    </g>
  </g>
  <g
     transform="translate(-1.6749437,-1.6849995)"
     id="g236"
     fill="none"
     stroke-width="4"
     stroke="#000000">
    <rect
       id="rect228"
       x="798.53003"
       y="40.685001"
       width="160"
       height="40" />
    <rect
       id="rect230"
       x="826.71002"
       y="56.685001"
       width="16"
       height="8" />
    <rect
       id="rect232"
       x="870.53003"
       y="56.685001"
       width="16"
       height="8" />
    <rect
       id="rect234"
       x="914.34003"
       y="56.685001"
       width="16"
       height="8" />
  </g>
  <g
     transform="translate(-1.6749437,-1.6849995)"
     id="g574"
     font-family="sans-serif"
     font-weight="700">
    <g
       id="g298"
       fill="#000000"
       font-size="14.111px">
      <text
         id="text296"
         style="text-anchor:middle"><tspan
           id="tspan238"
           x="58.525745"
           y="116.14627">~</tspan><tspan
           id="tspan240"
           x="58.525745"
           y="133.78528">`</tspan><tspan
           id="tspan242"
           x="98.525742"
           y="116.14627">!</tspan><tspan
           id="tspan244"
           x="98.525742"
           y="133.78528">1</tspan><tspan
           id="tspan246"
           x="138.52574"
           y="116.14627">@</tspan><tspan
           id="tspan248"
           x="138.52574"
           y="133.78528">2</tspan><tspan
           id="tspan250"
           x="178.52574"
           y="116.14627">#</tspan><tspan
           id="tspan252"
           x="178.52574"
           y="133.78528">3</tspan><tspan
           id="tspan254"
           x="218.52574"
           y="116.14627">$</tspan><tspan
           id="tspan256"
           x="218.52574"
           y="133.78528">4</tspan><tspan
           id="tspan258"
           x="258.52576"
           y="116.14627">%</tspan><tspan
           id="tspan260"
           x="258.52576"
           y="133.78528">5</tspan><tspan
           id="tspan262"
           x="298.52576"
           y="116.14627">^</tspan><tspan
           id="tspan264"
           x="298.52576"
           y="133.78528">6</tspan><tspan
           id="tspan266"
           x="338.52576"
           y="116.14627">&amp;</tspan><tspan
           id="tspan268"
           x="338.52576"
           y="133.78528">7</tspan><tspan
           id="tspan270"
           x="378.52576"
           y="116.14627">*</tspan><tspan
           id="tspan272"
           x="378.52576"
           y="133.78528">8</tspan><tspan
           id="tspan274"
           x="418.52576"
           y="116.14627">(</tspan><tspan
           id="tspan276"
           x="418.52576"
           y="133.78528">9</tspan><tspan
           id="tspan278"
           x="458.52576"
           y="116.14627">)</tspan><tspan
           id="tspan280"
           x="458.52576"
           y="133.78528">0</tspan><tspan
           id="tspan282"
           x="498.52576"
           y="116.14627">_</tspan><tspan
           id="tspan284"
           x="498.52576"
           y="133.78528">-</tspan><tspan
           id="tspan286"
           x="538.52576"
           y="116.14627">+</tspan><tspan
           id="tspan288"
           x="538.52576"
           y="133.78528">=</tspan><tspan
           id="tspan290"
           x="578.52576"
           y="116.14627">|</tspan><tspan
           id="tspan292"
           x="578.52576"
           y="133.78528">\</tspan><tspan
           id="tspan294"
           x="618.52576"
           y="124.96627">←</tspan></text>
    </g>
    <g
       id="g332"
       fill="#000000"
       font-size="14.111px">
      <text
         id="text330"
         style="text-anchor:middle"><tspan
           id="tspan300"
           x="68.525742"
           y="164.96628">Tab</tspan><tspan
           id="tspan302"
           x="118.52574"
           y="164.96628">Q</tspan><tspan
           id="tspan304"
           x="158.52574"
           y="164.96628">W</tspan><tspan
           id="tspan306"
           x="198.52574"
           y="164.96628">E</tspan><tspan
           id="tspan308"
           x="238.52574"
           y="164.96628">R</tspan><tspan
           id="tspan310"
           x="278.52576"
           y="164.96628">T</tspan><tspan
           id="tspan312"
           x="318.52576"
           y="164.96628">Y</tspan><tspan
           id="tspan314"
           x="358.52576"
           y="164.96628">U</tspan><tspan
           id="tspan316"
           x="398.52576"
           y="164.96628">I</tspan><tspan
           id="tspan318"
           x="438.52576"
           y="164.96628">O</tspan><tspan
           id="tspan320"
           x="478.52576"
           y="164.96628">P</tspan><tspan
           id="tspan322"
           x="518.52576"
           y="156.14627">{</tspan><tspan
           id="tspan324"
           x="518.52576"
           y="173.78528">[</tspan><tspan
           id="tspan326"
           x="558.52576"
           y="156.14627">}</tspan><tspan
           id="tspan328"
           x="558.52576"
           y="173.78528">]</tspan></text>
    </g>
    <g
       id="g366"
       fill="#000000"
       font-size="14.111px">
      <text
         id="text364"
         style="text-anchor:middle"><tspan
           id="tspan334"
           x="598.52576"
           y="204.96628">Enter</tspan><tspan
           id="tspan336"
           x="68.525742"
           y="204.96628">Caps</tspan><tspan
           id="tspan338"
           x="138.52574"
           y="204.96628">A</tspan><tspan
           id="tspan340"
           x="178.52574"
           y="204.96628">S</tspan><tspan
           id="tspan342"
           x="218.52574"
           y="204.96628">D</tspan><tspan
           id="tspan344"
           x="258.52576"
           y="204.96628">F</tspan><tspan
           id="tspan346"
           x="298.52576"
           y="204.96628">G</tspan><tspan
           id="tspan348"
           x="338.52576"
           y="204.96628">H</tspan><tspan
           id="tspan350"
           x="378.52576"
           y="204.96628">J</tspan><tspan
           id="tspan352"
           x="418.52576"
           y="204.96628">K</tspan><tspan
           id="tspan354"
           x="458.52576"
           y="204.96628">L</tspan><tspan
           id="tspan356"
           x="498.52576"
           y="196.14627">:</tspan><tspan
           id="tspan358"
           x="498.52576"
           y="213.78528">;</tspan><tspan
           id="tspan360"
           x="538.52576"
           y="196.14627">&quot;</tspan><tspan
           id="tspan362"
           x="538.52576"
           y="213.78528">'</tspan></text>
    </g>
    <g
       id="g400"
       fill="#000000"
       font-size="14.111px">
      <text
         id="text398"
         style="text-anchor:middle"><tspan
           id="tspan368"
           x="158.52574"
           y="244.96628">Z</tspan><tspan
           id="tspan370"
           x="198.52574"
           y="244.96628">X</tspan><tspan
           id="tspan372"
           x="238.52574"
           y="244.96628">C</tspan><tspan
           id="tspan374"
           x="278.52576"
           y="244.96628">V</tspan><tspan
           id="tspan376"
           x="318.52576"
           y="244.96628">B</tspan><tspan
           id="tspan378"
           x="358.52576"
           y="244.96628">N</tspan><tspan
           id="tspan380"
           x="398.52576"
           y="244.96628">M</tspan><tspan
           id="tspan382"
           x="438.52576"
           y="236.14627">&lt;</tspan><tspan
           id="tspan384"
           x="438.52576"
           y="253.78528">,</tspan><tspan
           id="tspan386"
           x="478.52576"
           y="236.14627">&gt;</tspan><tspan
           id="tspan388"
           x="478.52576"
           y="253.78528">.</tspan><tspan
           id="tspan390"
           x="518.52576"
           y="236.14627">?</tspan><tspan
           id="tspan392"
           x="518.52576"
           y="253.78528">/</tspan><tspan
           id="tspan394"
           x="588.52576"
           y="244.96628">Shift</tspan><tspan
           id="tspan396"
           x="88.525742"
           y="244.96628">Shift</tspan></text>
    </g>
    <g
       id="g410"
       font-size="14.111px">
      <text
         id="text408"
         style="text-anchor:middle"
         opacity="0"><tspan
           id="tspan402"
           x="108.52574"
           y="284.96628">1</tspan><tspan
           id="tspan404"
           x="528.52576"
           y="284.96628">1</tspan><tspan
           id="tspan406"
           x="578.52576"
           y="284.96628">1</tspan></text>
    </g>
    <g
       id="g422"
       fill="#000000"
       font-size="14.111px">
      <text
         id="text420"
         style="text-anchor:middle"><tspan
           id="tspan412"
           x="58.525745"
           y="284.96628">Ctrl</tspan><tspan
           id="tspan414"
           x="168.52574"
           y="284.96628">Alt</tspan><tspan
           id="tspan416"
           x="468.52576"
           y="284.96628">Alt</tspan><tspan
           id="tspan418"
           x="618.52576"
           y="284.96628">Ctrl</tspan></text>
    </g>
    <g
       id="g440"
       fill="#000000"
       font-size="8.4667px">
      <text
         id="text438"
         style="text-anchor:middle"><tspan
           id="tspan424"
           x="678.52576"
           y="52.660267">Print</tspan><tspan
           id="tspan426"
           x="678.52576"
           y="63.243568">Scrn</tspan><tspan
           id="tspan428"
           x="678.52576"
           y="73.826973">SysRq</tspan><tspan
           id="tspan430"
           x="758.52576"
           y="57.951969">Pause</tspan><tspan
           id="tspan432"
           x="758.52576"
           y="68.535271">Break</tspan><tspan
           id="tspan434"
           x="718.52576"
           y="57.951969">Scroll</tspan><tspan
           id="tspan436"
           x="718.52576"
           y="68.535271">Lock</tspan></text>
    </g>
    <g
       id="g470"
       fill="#000000"
       font-size="14.111px">
      <text
         id="text468"
         style="text-anchor:middle"><tspan
           id="tspan442"
           x="58.525745"
           y="64.965874">Esc</tspan><tspan
           id="tspan444"
           x="138.52574"
           y="64.965874">F1</tspan><tspan
           id="tspan446"
           x="178.52574"
           y="64.965874">F2</tspan><tspan
           id="tspan448"
           x="218.52574"
           y="64.965874">F3</tspan><tspan
           id="tspan450"
           x="258.52576"
           y="64.965874">F4</tspan><tspan
           id="tspan452"
           x="318.52576"
           y="64.965874">F5</tspan><tspan
           id="tspan454"
           x="358.52576"
           y="64.965874">F6</tspan><tspan
           id="tspan456"
           x="398.52576"
           y="64.965874">F7</tspan><tspan
           id="tspan458"
           x="438.52576"
           y="64.965874">F8</tspan><tspan
           id="tspan460"
           x="498.52576"
           y="64.965874">F9</tspan><tspan
           id="tspan462"
           x="538.52576"
           y="64.965874">F10</tspan><tspan
           id="tspan464"
           x="578.52576"
           y="64.965874">F11</tspan><tspan
           id="tspan466"
           x="618.52576"
           y="64.965874">F12</tspan></text>
    </g>
    <g
       id="g482"
       fill="#000000"
       font-size="14.111px">
      <text
         id="text480"
         style="text-anchor:middle"><tspan
           id="tspan472"
           x="678.52576"
           y="284.96628">←</tspan><tspan
           id="tspan474"
           x="758.52576"
           y="284.96628">→</tspan><tspan
           id="tspan476"
           x="718.52576"
           y="284.96628">↓</tspan><tspan
           id="tspan478"
           x="718.52576"
           y="244.96628">↑</tspan></text>
    </g>
    <g
       id="g516"
       fill="#000000"
       font-size="14.111px">
      <text
         id="text514"
         style="text-anchor:middle"><tspan
           id="tspan484"
           x="898.52576"
           y="124.96627">*</tspan><tspan
           id="tspan486"
           x="938.52576"
           y="124.96627">-</tspan><tspan
           id="tspan488"
           x="818.52576"
           y="164.96628">7</tspan><tspan
           id="tspan490"
           x="898.52576"
           y="164.96628">9</tspan><tspan
           id="tspan492"
           x="938.52576"
           y="184.96628">+</tspan><tspan
           id="tspan494"
           x="818.52576"
           y="204.96628">4</tspan><tspan
           id="tspan496"
           x="898.52576"
           y="204.96628">6</tspan><tspan
           id="tspan498"
           x="818.52576"
           y="244.96628">1</tspan><tspan
           id="tspan500"
           x="898.52576"
           y="244.96628">3</tspan><tspan
           id="tspan502"
           x="838.52576"
           y="284.96628">0</tspan><tspan
           id="tspan504"
           x="898.52576"
           y="284.96628">.</tspan><tspan
           id="tspan506"
           x="858.52576"
           y="244.96628">2</tspan><tspan
           id="tspan508"
           x="858.52576"
           y="204.96628">5</tspan><tspan
           id="tspan510"
           x="858.52576"
           y="164.96628">8</tspan><tspan
           id="tspan512"
           x="858.52576"
           y="124.96627">/</tspan></text>
    </g>
    <g
       id="g536"
       fill="#000000"
       font-size="8.4667px">
      <text
         id="text534"
         style="text-anchor:middle"><tspan
           id="tspan518"
           x="678.52576"
           y="123.24327">Insert</tspan><tspan
           id="tspan520"
           x="758.52576"
           y="117.95227">Page</tspan><tspan
           id="tspan522"
           x="758.52576"
           y="128.53526">Up</tspan><tspan
           id="tspan524"
           x="678.52576"
           y="163.24327">Delete</tspan><tspan
           id="tspan526"
           x="758.52576"
           y="157.95227">Page</tspan><tspan
           id="tspan528"
           x="758.52576"
           y="168.53528">Down</tspan><tspan
           id="tspan530"
           x="718.52576"
           y="163.24327">End</tspan><tspan
           id="tspan532"
           x="718.52576"
           y="123.24327">Home</tspan></text>
    </g>
    <g
       id="g572"
       fill="#000000">
      <g
         id="g558"
         font-size="8.4667px">
        <text
           id="text556"
           style="text-anchor:middle"><tspan
             id="tspan538"
             x="938.52576"
             y="263.24329">Enter</tspan><tspan
             id="tspan540"
             x="818.52576"
             y="117.95227">Num</tspan><tspan
             id="tspan542"
             x="818.52576"
             y="128.53526">Lock</tspan><tspan
             id="tspan544"
             x="818.52527"
             y="173.82727">Home</tspan><tspan
             id="tspan546"
             x="898.52527"
             y="173.82727">Pg Up</tspan><tspan
             id="tspan548"
             x="818.52527"
             y="253.82727">End</tspan><tspan
             id="tspan550"
             x="898.52527"
             y="253.82727">Pg Dn</tspan><tspan
             id="tspan552"
             x="838.52527"
             y="293.82727">Ins</tspan><tspan
             id="tspan554"
             x="898.52527"
             y="293.82727">Del</tspan></text>
      </g>
      <g
         id="g570"
         font-size="14.111px">
        <text
           id="text568"
           style="text-anchor:middle"><tspan
             id="tspan560"
             x="818.52527"
             y="215.07796">←</tspan><tspan
             id="tspan562"
             x="898.52527"
             y="215.07796">→</tspan><tspan
             id="tspan564"
             x="858.52527"
             y="256.20148">↓</tspan><tspan
             id="tspan566"
             x="858.52527"
             y="176.20148">↑</tspan></text>
      </g>
    </g>
  </g>
  <path
     id="path584"
     d="m 39.357794,278.77961 v -17.45446 h 17.454455 17.454457 v 17.45446 17.45445 H 56.812249 39.357794 Z m 11.40806,4.95432 c 2.544466,-0.97641 1.749324,-3.65301 -1.073185,-3.61256 -1.935576,0.0277 -2.595072,-0.44806 -2.820398,-2.03486 -0.393304,-2.76973 1.859006,-3.50333 4.813157,-1.5677 1.618222,1.06031 2.370855,2.37341 2.370855,4.1364 0,2.84053 1.270463,3.43318 6.149019,2.86841 2.350948,-0.27216 2.989657,-0.80638 3.215294,-2.68927 0.419716,-3.50243 3.496864,-3.62224 3.496864,-0.13615 0,2.06225 0.4207,2.67469 1.837311,2.67469 1.633165,0 1.837313,-0.61244 1.837313,-5.51194 0,-4.8995 -0.204148,-5.51193 -1.837313,-5.51193 -1.020728,0 -1.837311,0.61243 -1.837311,1.37798 0,1.05785 -1.173838,1.37799 -5.052605,1.37799 -2.778933,0 -5.052606,-0.4134 -5.052606,-0.91866 0,-1.32121 -2.512273,-1.13421 -3.08542,0.22966 -0.345573,0.82233 -0.771446,0.69195 -1.500187,-0.45932 -1.352952,-2.13741 -5.747952,-2.05577 -7.738476,0.14373 -3.989417,4.40826 0.788313,11.74 6.277688,9.63353 z"
     style="fill:#ffd5d5;stroke-width:0.918657" />
  <path
     id="path586"
     d="m 39.357794,239.27742 v -17.45445 h 47.31076 47.310756 v 17.45445 17.45446 H 86.668554 39.357794 Z m 37.481149,3.49089 c 1.451409,-1.45141 1.418608,-5.30823 -0.04595,-5.40073 -0.918657,-0.058 -0.918657,-0.16519 0,-0.53588 0.631577,-0.25485 1.14832,-1.27835 1.14832,-2.27445 0,-1.58746 -0.538814,-1.77651 -4.363616,-1.53109 -3.983908,0.25563 -4.388685,0.49753 -4.65174,2.77981 -0.237722,2.0625 0.244407,2.74344 2.755964,3.89246 l 3.044095,1.39264 -2.985627,-0.52049 c -2.205158,-0.38443 -2.985633,-0.18122 -2.985633,0.77738 0,0.71382 0.275597,1.57346 0.612437,1.9103 1.027716,1.02772 6.299771,0.68201 7.471735,-0.48995 z m 5.695663,-2.16712 c 0,-1.94575 0.371945,-3.03964 0.918652,-2.70175 0.50526,0.31227 0.918656,1.78354 0.918656,3.26951 0,2.08931 0.416486,2.70175 1.837314,2.70175 1.437776,0 1.837308,-0.61244 1.837308,-2.81636 0,-3.77975 -1.507433,-6.3702 -3.706945,-6.3702 -0.992741,0 -1.804985,-0.62009 -1.804985,-1.37798 0,-0.76555 -0.816585,-1.37798 -1.837313,-1.37798 -1.648867,0 -1.837309,0.61243 -1.837309,5.97126 0,5.35882 0.188442,5.97126 1.837309,5.97126 1.493153,0 1.837313,-0.61244 1.837313,-3.26951 z m 10.105209,0.0542 c 0,-1.76841 0.413396,-3.21529 0.918657,-3.21529 0.50526,0 0.918657,1.44688 0.918657,3.21529 0,2.2456 0.415581,3.21529 1.377982,3.21529 0.962401,0 1.377983,-0.96969 1.377983,-3.21529 0,-4.2633 2.519454,-4.46096 2.927426,-0.22967 0.23987,2.4878 0.70911,3.0341 2.81417,3.27632 1.80449,0.20763 2.5263,-0.12047 2.5263,-1.14832 0,-0.79146 -0.41339,-1.439 -0.91865,-1.439 -0.50526,0 -0.91866,-0.8268 -0.91866,-1.83732 0,-1.01052 0.4134,-1.8373 0.91866,-1.8373 0.50526,0 0.91865,-0.44293 0.91865,-0.98428 0,-1.86231 -2.58126,-3.55936 -6.32427,-4.15789 -2.984297,-0.47721 -3.867389,-0.29475 -4.323265,0.89324 -0.719616,1.87529 -2.21364,1.95288 -2.21364,0.11497 0,-0.76554 -0.81658,-1.37798 -1.837308,-1.37798 -1.648873,0 -1.837314,0.61244 -1.837314,5.97126 0,5.35882 0.188441,5.97126 1.837314,5.97126 1.487345,0 1.837308,-0.61244 1.837308,-3.21529 z"
     style="fill:#ffd5d5;stroke-width:0.918657" />
  <path
     id="path588"
     d="M 39.357794,198.85657 V 181.40212 H 66.91746 94.477129 v 17.45445 17.45446 H 66.91746 39.357794 Z m 32.152941,6.03229 c 0,-0.75378 1.080342,-1.44127 2.526308,-1.60765 2.286466,-0.26309 2.526302,-0.63953 2.526302,-3.96531 v -3.67462 l -4.363616,-0.28 -4.363613,-0.28 v 5.56227 c 0,4.94983 0.202298,5.56227 1.837311,5.56227 1.010521,0 1.837308,-0.59263 1.837308,-1.31696 z m -4.775301,-5.44936 c -0.273229,-3.74244 -0.333045,-3.80229 -4.072638,-4.07538 l -3.795335,-0.27716 -0.05425,3.93137 c -0.06326,4.58339 0.508106,5.11732 4.924326,4.60175 3.219241,-0.37583 3.270467,-0.44726 2.997904,-4.18058 z m 18.271529,-0.50871 0.175717,-3.85331 -3.391013,0.2819 c -3.292313,0.2737 -3.39603,0.3939 -3.563434,4.12985 -0.185037,4.12943 1.080892,5.17042 4.765699,3.9189 1.401953,-0.47616 1.878951,-1.53708 2.013031,-4.47734 z m -27.276058,2.70472 c 0,-1.52599 -0.438008,-1.72675 -2.755967,-1.26315 -2.489364,0.49787 -2.755966,0.32316 -2.755966,-1.80606 0,-2.95474 1.243066,-3.76702 3.728903,-2.43664 1.726021,0.92374 1.897609,0.80709 1.626633,-1.10584 -0.218738,-1.54416 -0.992433,-2.21808 -2.783804,-2.4248 -4.153782,-0.47937 -6.246355,1.25848 -6.246355,5.18749 0,4.36743 1.303311,5.66334 5.695665,5.66334 2.863725,0 3.490891,-0.32596 3.490891,-1.81434 z"
     style="fill:#ffd5d5;stroke-width:0.918657" />
  <path
     id="path590"
     d="M 39.357794,159.35439 V 141.89993 H 66.91746 94.477129 v 17.45446 17.45445 H 66.91746 39.357794 Z m 19.291766,0.45933 c 0,-3.52152 0.272194,-4.13395 1.837311,-4.13395 1.020729,0 1.837311,-0.61244 1.837311,-1.37799 0,-1.05784 -1.173837,-1.37798 -5.052605,-1.37798 -3.878768,0 -5.052605,0.32014 -5.052605,1.37798 0,0.75789 0.620092,1.37799 1.377983,1.37799 0.985225,0 1.377983,1.00371 1.377983,3.52151 0,3.76608 0.505964,4.74638 2.449749,4.74638 0.839265,0 1.224873,-1.30142 1.224873,-4.13394 z m 11.942524,-0.01 c 0,-4.13063 -0.90613,-5.0426 -5.010329,-5.0426 -1.749645,0 -2.204579,0.62841 -2.700602,3.73036 -0.328079,2.0517 -0.372603,4.09265 -0.09894,4.53544 0.273663,0.44279 2.142836,0.78238 4.153718,0.75463 l 3.656153,-0.0505 v -3.92737 z m 9.136752,2.82598 c 0.601596,-0.72489 0.96226,-2.68851 0.801474,-4.36362 -0.254363,-2.64992 -0.620583,-3.04092 -2.818645,-3.00942 -1.828258,0.0262 -2.526302,-0.418 -2.526302,-1.60765 0,-0.90412 -0.620095,-1.64385 -1.377989,-1.64385 -1.083537,0 -1.377982,1.2759 -1.377982,5.97125 v 5.97126 h 3.10281 c 1.706548,0 3.595032,-0.59308 4.196634,-1.31797 z"
     style="fill:#ffd5d5;stroke-width:0.918657" />
  <path
     id="path592"
     d="M 39.357794,118.93354 V 101.47909 H 56.812249 74.266706 V 118.93354 136.388 H 56.812249 39.357794 Z m 19.291766,4.20909 c 0,-1.66048 -1.413881,-3.29043 -2.854252,-3.29043 -1.991808,0 -2.233273,0.9756 -0.636639,2.57224 1.042436,1.04243 3.490891,1.54616 3.490891,0.71819 z m -4.325336,-11.78799 c 0.33684,-0.91866 0.664494,-0.91866 1.638269,0 1.707554,1.61089 5.138085,1.43075 5.804076,-0.3048 0.944722,-2.46191 0.621955,-4.05882 -0.82037,-4.05882 -0.75789,0 -1.377983,0.68416 -1.377983,1.52037 0,1.41471 -0.116741,1.41471 -1.679983,0 -2.90025,-2.6247 -6.587917,-1.31597 -6.587917,2.33799 0,1.86854 2.378328,2.26593 3.023908,0.50526 z"
     style="fill:#ffd5d5;stroke-width:0.918657" />
  <path
     id="path594"
     d="M 39.357794,59.220934 V 41.766479 H 56.812249 74.266706 V 59.220934 76.67539 H 56.812249 39.357794 Z m 21.764044,0.180101 c 0.192966,-4.34392 -0.899777,-5.367231 -4.710167,-4.410884 -1.576945,0.395789 -2.319193,1.302837 -2.524249,3.084705 -0.228073,1.98188 -0.83313,2.586501 -2.81677,2.814744 -1.389466,0.159876 -2.526303,-0.15017 -2.526303,-0.688991 0,-0.538821 0.826791,-0.979675 1.837311,-0.979675 2.521048,0 2.328781,-2.533519 -0.229664,-3.026297 -1.77222,-0.341344 -1.706719,-0.415957 0.459328,-0.523221 1.577564,-0.07812 2.526303,-0.642598 2.526303,-1.503088 0,-1.020728 -1.071765,-1.377983 -4.13395,-1.377983 h -4.13395 v 5.513768 5.513768 l 8.038236,-0.231499 8.038236,-0.231498 z m 8.551589,2.732587 c 0,-1.152009 -0.650107,-1.657648 -2.066975,-1.607647 -1.257293,0.04437 -2.066975,-0.466846 -2.066975,-1.305041 0,-0.881423 0.744841,-1.299126 2.066975,-1.15915 1.332725,0.141097 2.066975,-0.277061 2.066975,-1.177152 0,-1.966966 -2.470798,-2.681823 -5.111188,-1.478781 -1.739937,0.792768 -2.238057,1.722693 -2.238057,4.178161 0,3.358504 0.792836,4.041977 4.822942,4.157675 1.861766,0.05345 2.526303,-0.36955 2.526303,-1.608065 z"
     style="fill:#ffd5d5;stroke-width:0.918657" />
  <path
     id="path596"
     d="M 78.859984,118.93354 V 101.47909 H 96.773762 114.68755 V 118.93354 136.388 H 96.773762 78.859984 Z m 22.047736,12.40185 c 0,-0.75789 -0.4134,-1.37798 -0.918661,-1.37798 -0.505261,0 -0.918657,-1.86028 -0.918657,-4.13395 0,-4.2195 -0.722885,-4.85645 -4.058813,-3.57634 -1.587186,0.60907 -2.01721,3.11701 -0.53446,3.11701 0.50526,0 0.918651,1.03349 0.918651,2.29664 0,1.26315 -0.413391,2.29664 -0.918651,2.29664 -0.505261,0 -0.918657,0.62009 -0.918657,1.37798 0,0.99521 1.020728,1.37798 3.674622,1.37798 2.653893,0 3.674626,-0.38277 3.674626,-1.37798 z m -1.837318,-17.45445 c 0,-0.76555 -0.81658,-1.37798 -1.837308,-1.37798 -1.020728,0 -1.837314,0.61243 -1.837314,1.37798 0,0.76554 0.816586,1.37798 1.837314,1.37798 1.020728,0 1.837308,-0.61244 1.837308,-1.37798 z m -0.918652,-3.55979 c 0,-0.69473 0.258369,-2.55501 0.57416,-4.13395 0.498952,-2.49478 0.318466,-2.8708 -1.377988,-2.8708 -1.701211,0 -1.952142,0.53138 -1.952142,4.13395 0,3.06219 0.357254,4.13395 1.377982,4.13395 0.757894,0 1.377988,-0.56842 1.377988,-1.26315 z"
     style="fill:#ffd5d5;stroke-width:0.918657" />
  <path
     id="path598"
     d="m 119.28082,118.93354 v -17.45445 h 17.45446 17.45445 v 17.45445 17.45446 h -17.45445 -17.45446 z m 22.04774,12.40185 c 0,-0.75789 -0.62963,-1.37798 -1.39916,-1.37798 -1.23239,0 -1.22331,-0.26839 0.0762,-2.25166 1.75351,-2.67618 1.06661,-5.62876 -1.46341,-6.29037 -2.77191,-0.72488 -5.48151,0.30884 -5.48151,2.09119 0,1.21427 0.5567,1.49636 2.29664,1.16375 1.26353,-0.24154 2.29663,-0.008 2.29663,0.52004 0,0.52749 -1.03348,1.77202 -2.29663,2.76561 -3.72105,2.92698 -3.01414,4.7574 1.83731,4.7574 3.06218,0 4.13395,-0.35725 4.13395,-1.37798 z m 0.12191,-17.13569 c 2.4963,-2.87826 2.19643,-6.69695 -0.70513,-8.97931 -3.20761,-2.52311 -5.43357,-2.40131 -8.28842,0.45354 -4.17905,4.17905 -1.42377,10.50365 4.57585,10.50365 1.62271,0 3.38761,-0.79018 4.4177,-1.97788 z"
     style="fill:#ffd5d5;stroke-width:0.918657" />
  <path
     id="path600"
     d="m 159.70167,118.93354 v -17.45445 h 17.45445 17.45446 v 17.45445 17.45446 h -17.45446 -17.45445 z m 20.60413,12.33623 c 1.61618,-1.61617 1.83342,-2.80032 0.64815,-3.53285 -0.4375,-0.27039 -0.59681,-1.53077 -0.35403,-2.80084 0.34102,-1.78389 -0.0337,-2.48499 -1.64732,-3.08189 -3.02153,-1.11774 -6.38976,-0.24675 -6.38976,1.65234 0,1.20856 0.62141,1.52929 2.52631,1.30388 1.38947,-0.16442 1.80286,-0.0768 0.91865,0.19475 -1.9619,0.60248 -2.14714,3.11494 -0.22966,3.11494 0.75789,0 1.37798,0.45821 1.37798,1.01825 0,0.6274 -0.88153,0.79699 -2.29664,0.44182 -1.88175,-0.47229 -2.29664,-0.24135 -2.29664,1.27839 0,1.49999 0.60254,1.85481 3.14968,1.85481 1.73232,0 3.7993,-0.64962 4.59328,-1.4436 z m -4.88042,-17.61849 c 0.10149,-1.5311 0.12657,-1.5311 0.52669,0 0.5124,1.96077 3.04137,2.15174 3.04137,0.22966 0,-0.75789 0.62009,-1.37798 1.37798,-1.37798 1.66419,0 1.84503,-2.4144 0.22966,-3.06622 -0.68599,-0.27681 -0.50107,-0.49255 0.45933,-0.53588 1.65817,-0.0748 2.32894,-2.8285 0.68899,-2.8285 -0.50526,0 -0.91866,-0.55717 -0.91866,-1.23817 0,-1.6985 -5.21998,-1.76633 -5.86852,-0.0763 -0.27742,0.72294 -1.13746,1.31443 -1.91122,1.31443 -0.77374,0 -1.40681,0.6201 -1.40681,1.37799 0,0.75789 0.51675,1.38432 1.14832,1.39205 0.87717,0.0107 0.86459,0.19402 -0.0532,0.77614 -0.78105,0.49535 -0.98733,1.61574 -0.5894,3.20122 0.68273,2.72023 3.10951,3.33628 3.27554,0.83152 z"
     style="fill:#ffd5d5;stroke-width:0.918657" />
  <path
     id="path602"
     d="m 199.20386,118.93354 v -17.45445 h 17.45445 17.45446 v 17.45445 17.45446 h -17.45446 -17.45445 z m 21.12907,12.40185 c 0,-0.75789 0.4134,-1.37798 0.91866,-1.37798 0.50526,0 0.91866,-0.62009 0.91866,-1.37798 0,-0.75789 -0.4134,-1.37799 -0.91866,-1.37799 -0.50526,0 -0.91866,-1.24018 -0.91866,-2.75596 0,-3.72004 -2.72755,-3.68739 -5.88959,0.0705 -3.02767,3.59818 -3.05534,5.44145 -0.0817,5.44145 1.42903,0 2.29664,0.52057 2.29664,1.37798 0,0.76555 0.81659,1.37798 1.83732,1.37798 1.02072,0 1.8373,-0.61243 1.8373,-1.37798 z m -1.42531,-16.41148 c 2.73472,-2.53444 2.99994,-4.70356 0.73633,-6.022 -0.89221,-0.51965 -1.09663,-0.9488 -0.45934,-0.9643 1.60005,-0.0389 1.44908,-2.7839 -0.1531,-2.7839 -0.71579,0 -1.54258,-0.51675 -1.83732,-1.14832 -0.4287,-0.91865 -0.64306,-0.91865 -1.07176,0 -0.29474,0.63157 -1.0773,1.14832 -1.73902,1.14832 -2.78259,0 -2.5332,5.06572 0.28614,5.8124 1.05674,0.27987 0.8906,0.438 -0.53754,0.51162 -2.29527,0.11834 -2.92814,2.86253 -0.66016,2.86253 0.77375,0 1.64477,0.6201 1.9356,1.37799 0.68314,1.78024 0.73481,1.76851 3.50017,-0.79434 z"
     style="fill:#ffd5d5;stroke-width:0.918657" />
  <path
     id="path604"
     d="m 239.6247,118.93354 v -17.45445 h 17.45446 17.45445 V 118.93354 136.388 H 257.07916 239.6247 Z m 20.60413,12.33623 c 2.55818,-2.55817 1.42726,-5.14742 -2.69035,-6.15954 -1.39988,-0.3441 -1.23585,-0.477 0.689,-0.55819 1.5858,-0.0669 2.5263,-0.61956 2.5263,-1.48455 0,-1.02073 -1.07177,-1.37798 -4.13395,-1.37798 -4.11208,0 -4.13395,0.017 -4.13395,3.21529 0,2.9739 0.21098,3.2153 2.81018,3.2153 1.77995,0 2.58517,0.36408 2.19642,0.99309 -0.33757,0.5462 -1.60215,0.74502 -2.81018,0.44183 -2.12752,-0.53397 -3.10031,1.0296 -1.58398,2.54592 1.14619,1.14619 5.68185,0.6175 7.13051,-0.83117 z m -3.90238,-18.30486 1.04523,-2.29401 1.02505,2.06435 c 2.06639,4.16148 7.44731,2.37974 6.79118,-2.24871 -0.21744,-1.53383 -0.99715,-2.19772 -2.82862,-2.40842 -2.17466,-0.25019 -2.44994,-0.60367 -1.96739,-2.52631 0.85151,-3.39267 -1.75969,-2.84032 -3.54665,0.75022 -1.47552,2.96477 -1.48631,2.96867 -1.54465,0.55761 -0.0639,-2.63914 -2.057,-3.90755 -4.78145,-3.04284 -1.22778,0.38969 -1.70789,1.42854 -1.70789,3.69546 0,2.89132 0.22903,3.15338 2.75596,3.15338 2.70613,0 3.64813,1.1775 1.83732,2.29664 -1.39614,0.86286 -1.09709,2.29664 0.47902,2.29664 0.76872,0 1.86803,-1.0323 2.44289,-2.29401 z"
     style="fill:#ffd5d5;stroke-width:0.918657" />
  <path
     id="path606"
     d="m 279.12689,118.93354 v -17.45445 h 17.45446 17.45445 v 17.45445 17.45446 h -17.45445 -17.45446 z m 20.59461,13.22222 c 2.12827,-0.81669 1.99523,-6.75569 -0.15453,-6.89819 -1.53109,-0.10149 -1.53109,-0.12657 0,-0.52669 1.97218,-0.51538 2.1124,-2.65111 0.22169,-3.37664 -2.03897,-0.78243 -5.69719,0.87752 -6.9042,3.13283 -1.15674,2.16139 -0.44916,6.43739 1.24342,7.51405 1.31506,0.83652 3.64856,0.90104 5.59362,0.15464 z M 295.61637,109.058 c 0.91774,-1.5311 1.02316,-1.5311 2.2139,0 1.1309,1.45417 4.26301,2.28839 4.26301,1.13543 0,-1.23663 -4.26181,-6.85564 -5.20735,-6.86566 -0.98055,-0.0104 -4.89786,5.39411 -4.89786,6.75731 0,1.25798 2.72017,0.48797 3.6283,-1.02708 z"
     style="fill:#ffd5d5;stroke-width:0.918657" />
  <path
     id="path608"
     d="m 319.54773,118.93354 v -17.45445 h 17.45446 17.45445 v 17.45445 17.45446 h -17.45445 -17.45446 z m 19.6051,9.2919 c 1.34345,-2.46836 2.44264,-4.94873 2.44264,-5.51193 0,-0.61636 -1.82851,-1.024 -4.59328,-1.024 -3.47048,0 -4.59328,0.33684 -4.59328,1.37798 0,0.87138 0.8777,1.37799 2.38738,1.37799 h 2.38738 l -1.92805,3.2678 c -2.36818,4.01376 -2.41488,5.00009 -0.23674,5.00009 1.07851,0 2.57633,-1.62607 4.13395,-4.48793 z m 4.27994,-13.95179 c 0,-0.40898 -0.41339,-0.9991 -0.91865,-1.31137 -0.50526,-0.31227 -0.91865,-1.57685 -0.91865,-2.81018 0,-1.23333 -0.31537,-2.24242 -0.70082,-2.24242 -0.38545,0 -1.10889,-0.93014 -1.60765,-2.06698 -1.00914,-2.30018 -4.48775,-3.21024 -6.35314,-1.66211 -1.50149,1.24613 -1.76765,9.39165 -0.3358,10.27658 1.44577,0.89353 10.83471,0.7345 10.83471,-0.18352 z"
     style="fill:#ffd5d5;stroke-width:0.918657" />
  <path
     id="path610"
     d="m 359.04992,118.93354 v -17.45445 h 17.45446 17.45445 v 17.45445 17.45446 h -17.45445 -17.45446 z m 22.05789,11.92354 c 0.5464,-1.02097 0.67706,-2.3645 0.29033,-2.98563 -0.38671,-0.62113 -0.58308,-2.0585 -0.43635,-3.19416 0.35858,-2.77531 -3.8375,-4.54214 -6.53446,-2.75143 -2.03143,1.34882 -2.93726,7.69462 -1.37595,9.6392 1.52421,1.89835 6.91511,1.42461 8.05643,-0.70798 z m -2.76612,-20.19144 c 0,-0.50526 0.46507,-0.8153 1.03349,-0.68899 0.56841,0.12632 1.22296,-0.28708 1.45453,-0.91865 0.23158,-0.63158 -0.0774,-1.14832 -0.68664,-1.14832 -0.85684,0 -0.85301,-0.30688 0.0169,-1.35509 0.92802,-1.1182 0.6953,-1.55069 -1.33129,-2.47407 -2.01897,-0.91991 -2.60514,-0.88312 -3.29471,0.20677 -0.46134,0.72916 -0.84513,0.99131 -0.85286,0.58254 -0.008,-0.40876 -0.44754,-0.47531 -0.97733,-0.14788 -0.6585,0.40698 -0.62291,1.00543 0.11248,1.89153 0.8249,0.99394 0.81745,1.2962 -0.032,1.2962 -0.60923,0 -0.91822,0.51674 -0.68664,1.14832 0.23157,0.63157 0.88612,1.04497 1.45453,0.91865 0.56842,-0.12631 1.03349,0.18373 1.03349,0.68899 0,0.50526 0.62009,0.91866 1.37798,0.91866 0.7579,0 1.37799,-0.4134 1.37799,-0.91866 z"
     style="fill:#ffd5d5;stroke-width:0.918657" />
  <path
     id="path612"
     d="m 399.47076,118.93354 v -17.45445 h 17.45446 17.45445 v 17.45445 17.45446 h -17.45445 -17.45446 z m 20.61766,11.73812 c 3.5207,-5.02649 -0.0744,-11.02968 -5.39409,-9.00715 -2.08744,0.79364 -2.43342,1.40834 -2.19097,3.89259 0.21891,2.24314 0.83829,3.10194 2.58455,3.58364 2.17856,0.60095 2.19037,0.63823 0.22966,0.7251 -1.18418,0.0525 -2.06697,0.6801 -2.06697,1.46955 0,2.24525 5.15047,1.7453 6.83782,-0.66373 z m -0.88128,-14.26442 c -2.5508,-6.11492 -2.57594,-6.34063 -1.04757,-9.40431 1.88851,-3.78561 1.89612,-3.68653 -0.28337,-3.68653 -3.42572,0 -4.97287,7.24036 -2.64083,12.35863 1.23786,2.71681 5.09636,3.42815 3.97177,0.73221 z"
     style="fill:#ffd5d5;stroke-width:0.918657" />
  <path
     id="path614"
     d="m 438.97295,118.93354 v -17.45445 h 17.91379 17.91378 v 17.45445 17.45446 h -17.91378 -17.91379 z m 21.02469,12.94514 c 1.5112,-0.95704 1.73412,-8.00825 0.29856,-9.44381 -1.29613,-1.29612 -5.57457,-1.24435 -6.90244,0.0835 -1.54884,1.54883 -1.33304,8.27692 0.29856,9.30868 1.70762,1.07983 4.64378,1.10386 6.30532,0.0516 z m -1.1113,-17.30875 c 1.25963,-2.99986 1.28325,-3.91972 0.18279,-7.11958 -0.90304,-2.62581 -1.8537,-3.75841 -3.33071,-3.96818 -2.38398,-0.33858 -2.56385,0.47804 -0.65978,2.99544 0.74182,0.98078 1.34877,2.86539 1.34877,4.18803 0,1.32265 -0.60695,3.20726 -1.34877,4.18804 -1.84429,2.43836 -1.73521,3.16121 0.47699,3.16121 1.30768,0 2.32677,-1.05405 3.33071,-3.44496 z"
     style="fill:#ffd5d5;stroke-width:0.918657" />
  <path
     id="path616"
     d="m 479.39379,118.93354 v -17.45445 h 17.45446 17.45446 v 17.45445 17.45446 h -17.45446 -17.45446 z m 20.21043,8.72723 c 0,-0.91865 -0.91866,-1.37798 -2.75597,-1.37798 -1.83731,0 -2.75596,0.45933 -2.75596,1.37798 0,0.91866 0.91865,1.37798 2.75596,1.37798 1.83731,0 2.75597,-0.45932 2.75597,-1.37798 z m 2.75597,-11.48319 c 0,-0.51037 -2.44975,-0.91866 -5.51194,-0.91866 -3.06218,0 -5.51193,0.40829 -5.51193,0.91866 0,0.51036 2.44975,0.91866 5.51193,0.91866 3.06219,0 5.51194,-0.4083 5.51194,-0.91866 z"
     style="fill:#ffd5d5;stroke-width:0.918657" />
  <path
     id="path618"
     d="m 518.89598,118.93354 v -17.45445 h 17.91379 17.91378 v 17.45445 17.45446 h -17.91378 -17.91379 z m 22.96639,10.56454 c 0,-1.05785 -1.17383,-1.37798 -5.0526,-1.37798 -3.87877,0 -5.05261,0.32013 -5.05261,1.37798 0,1.05785 1.17384,1.37799 5.05261,1.37799 3.87877,0 5.0526,-0.32014 5.0526,-1.37799 z m 0,-3.67462 c 0,-1.05785 -1.17383,-1.37798 -5.0526,-1.37798 -3.87877,0 -5.05261,0.32013 -5.05261,1.37798 0,1.05784 1.17384,1.37798 5.05261,1.37798 3.87877,0 5.0526,-0.32014 5.0526,-1.37798 z m -3.67462,-12.40185 c 0,-1.22487 0.61244,-1.83731 1.83731,-1.83731 1.02073,0 1.83731,-0.61244 1.83731,-1.37798 0,-0.76555 -0.81658,-1.37799 -1.83731,-1.37799 -1.22487,0 -1.83731,-0.61243 -1.83731,-1.83731 0,-1.02073 -0.61244,-1.83731 -1.37798,-1.83731 -0.76555,0 -1.37799,0.81658 -1.37799,1.83731 0,1.22488 -0.61243,1.83731 -1.8373,1.83731 -1.02074,0 -1.83732,0.61244 -1.83732,1.37799 0,0.76554 0.81658,1.37798 1.83732,1.37798 1.22487,0 1.8373,0.61244 1.8373,1.83731 0,1.02073 0.61244,1.83731 1.37799,1.83731 0.76554,0 1.37798,-0.81658 1.37798,-1.83731 z"
     style="fill:#ffd5d5;stroke-width:0.918657" />
  <path
     id="path620"
     d="m 559.31683,118.93354 v -17.45445 h 17.45445 17.45444 v 17.45445 17.45446 h -17.45444 -17.45445 z m 22.04771,15.36099 c 0,-1.85707 -5.76958,-13.14185 -6.83131,-13.36137 -1.94279,-0.40169 -1.84888,0.2413 1.08269,7.41362 1.76621,4.32114 3.02017,6.19884 4.14098,6.20092 0.88421,0.002 1.60764,-0.11228 1.60764,-0.25317 z m -2.75592,-23.62889 c 0,-5.92022 -0.26796,-7.34924 -1.37799,-7.34924 -1.11009,0 -1.37799,1.42902 -1.37799,7.34924 0,5.92023 0.2679,7.34925 1.37799,7.34925 1.11003,0 1.37799,-1.42902 1.37799,-7.34925 z"
     style="fill:#ffd5d5;stroke-width:0.918657" />
  <path
     id="path622"
     d="m 599.73767,118.93354 v -17.45445 h 17.45445 17.45444 v 17.45445 17.45446 h -17.45444 -17.45445 z m 14.23918,2.75597 c -0.35251,-0.57035 1.36844,-0.91865 4.53904,-0.91865 2.80873,0 5.10682,-0.4134 5.10682,-0.91866 0,-0.50526 -2.29809,-0.91866 -5.10682,-0.91866 -3.1706,0 -4.89155,-0.3483 -4.53904,-0.91865 0.91779,-1.48507 -1.96166,-1.05121 -3.23915,0.48804 -0.96532,1.16313 -0.86549,1.63525 0.57653,2.72675 2.02896,1.53579 3.48272,1.78685 2.66262,0.45983 z"
     style="fill:#ffd5d5;stroke-width:0.918657" />
  <path
     id="path624"
     d="m 559.31683,198.85657 v -17.45445 h 10.10521 10.10522 v -19.75109 -19.7511 h 27.55965 27.55965 v 37.20555 37.20555 H 596.9817 559.31683 Z m 50.65402,4.59328 c 0.493,0 0.76921,-1.75692 0.61383,-3.90428 -0.26891,-3.71712 -0.43469,-3.91876 -3.45721,-4.20626 -2.22995,-0.21211 -3.52856,0.18189 -4.36362,1.3239 -0.71135,0.9728 -1.18884,1.15999 -1.18884,0.46602 0,-1.58877 -2.32455,-3.78459 -4.00645,-3.78459 -1.84587,0 -2.49307,2.5045 -1.66167,6.43059 0.55159,2.60481 1.1543,3.27049 3.17448,3.50598 1.87678,0.21878 2.49364,-0.10871 2.49364,-1.32391 0,-1.45143 0.116,-1.46827 1.14829,-0.16669 1.38197,1.74247 3.46165,2.57219 5.12776,2.04579 0.67288,-0.2126 1.62679,-0.38655 2.11979,-0.38655 z m -24.93164,-1.37798 c 0,-0.91866 -0.9187,-1.37798 -2.75598,-1.37798 -1.51578,0 -2.75597,-0.4134 -2.75597,-0.91866 0,-0.50526 1.03346,-0.91866 2.29662,-0.91866 3.16466,0 2.97192,-2.53163 -0.22964,-3.01663 -2.35134,-0.3562 -2.31955,-0.39223 0.45929,-0.52034 1.9803,-0.0913 2.98568,-0.60165 2.98568,-1.51563 0,-1.02073 -1.07178,-1.37798 -4.13397,-1.37798 h -4.13396 v 5.51193 5.51193 h 4.13396 c 3.06219,0 4.13397,-0.35725 4.13397,-1.37798 z m 4.59326,-1.37798 c 0,-1.51578 0.41339,-2.75597 0.91864,-2.75597 0.50524,0 0.91864,1.24019 0.91864,2.75597 0,1.83731 0.45934,2.75596 1.37798,2.75596 1.02077,0 1.37799,-1.07176 1.37799,-4.13395 v -4.13395 h -4.13391 -4.13396 v 4.13395 c 0,3.52151 0.27217,4.13395 1.83728,4.13395 1.42905,0 1.83734,-0.61244 1.83734,-2.75596 z m 25.72237,0 c 0,-1.83732 0.45929,-2.75597 1.37798,-2.75597 0.75787,0 1.37794,-0.62009 1.37794,-1.37798 0,-0.9624 -0.96965,-1.37799 -3.21527,-1.37799 -3.19831,0 -3.21527,0.0219 -3.21527,4.13395 0,3.52151 0.27217,4.13395 1.83728,4.13395 1.42905,0 1.83734,-0.61244 1.83734,-2.75596 z"
     style="fill:#ffd5d5;stroke-width:0.918657" />
  <path
     id="path626"
     d="m 539.10641,239.27742 v -17.45445 h 47.77008 47.77007 v 17.45445 17.45446 h -47.77007 -47.77008 z m 37.29748,3.89022 c 0.5558,-0.37121 1.2466,-1.29502 1.53511,-2.05291 0.35048,-0.92076 0.54861,-0.69215 0.59709,0.68899 0.05,1.43037 0.63838,2.06698 1.90981,2.06698 1.42085,0 1.83733,-0.61244 1.83733,-2.70175 0,-1.48597 0.4134,-2.95724 0.91864,-3.26951 0.5467,-0.33789 0.91864,0.756 0.91864,2.70175 0,2.65707 0.34419,3.26951 1.83734,3.26951 1.5214,0 1.83728,-0.61244 1.83728,-3.56214 0,-3.82474 -1.83009,-6.17627 -4.12222,-5.2967 -0.95044,0.36472 -1.38968,-0.0383 -1.38968,-1.27521 0,-1.19604 -0.6222,-1.80847 -1.83733,-1.80847 -1.5341,0 -1.83728,0.61243 -1.83728,3.71084 0,3.13362 -0.20027,3.52658 -1.28749,2.5263 -0.7081,-0.6515 -0.91482,-1.32234 -0.45935,-1.49076 0.45547,-0.16842 0.82814,-1.09856 0.82814,-2.06697 0,-1.43251 -0.66405,-1.76076 -3.56212,-1.76076 -6.03852,0 -7.52758,4.89093 -2.17313,7.13782 l 2.51998,1.05747 -2.98564,-0.49601 c -2.1936,-0.36444 -2.98562,-0.15172 -2.98562,0.80185 0,0.71382 0.27559,1.57346 0.61243,1.9103 0.82063,0.82063 6.02041,0.75598 7.28807,-0.0906 z m 15.98455,-5.2682 c 0,-5.35883 -0.18847,-5.97126 -1.83733,-5.97126 -1.64887,0 -1.83728,0.61243 -1.83728,5.97126 0,5.35882 0.18841,5.97126 1.83728,5.97126 1.64886,0 1.83733,-0.61244 1.83733,-5.97126 z m 4.59326,2.75596 c 0,-4.2633 2.51947,-4.46095 2.92742,-0.22966 0.23987,2.48779 0.70911,3.0341 2.81418,3.27631 1.80447,0.20763 2.52633,-0.12047 2.52633,-1.14832 0,-0.79145 -0.4134,-1.439 -0.9187,-1.439 -0.50524,0 -0.91864,-0.82679 -0.91864,-1.83731 0,-1.01052 0.4134,-1.83731 0.91864,-1.83731 0.5053,0 0.9187,-0.44293 0.9187,-0.98427 0,-1.85168 -2.57285,-3.55801 -6.2519,-4.14632 -4.58753,-0.73357 -5.73362,0.90962 -5.02424,7.20317 0.59586,5.28677 3.00821,6.20312 3.00821,1.14271 z"
     style="fill:#ffd5d5;stroke-width:0.918657" />
  <path
     id="path628"
     d="m 599.73767,278.77961 v -17.45446 h 17.45445 17.45444 v 17.45446 17.45445 h -17.45444 -17.45445 z m 10.79421,4.93291 c 1.20333,-0.32247 2.06698,-1.26726 2.06698,-2.26112 0,-1.38783 -0.49086,-1.60903 -2.6238,-1.18245 -3.15516,0.63103 -4.71122,-1.8973 -2.51768,-4.09084 1.19643,-1.19641 1.63438,-1.17465 3.70838,0.18428 1.4604,0.9569 2.35174,2.39108 2.35174,3.78405 0,2.76505 3.30947,4.91465 4.92155,3.19672 0.7896,-0.84139 0.76516,-1.22293 -0.0986,-1.53965 -1.36007,-0.49868 -1.56067,-3.94256 -0.2297,-3.94256 1.33608,0 1.12452,-1.76269 -0.39368,-3.28091 -1.61825,-1.61825 -4.18969,-1.71803 -4.2275,-0.16405 -0.0157,0.63729 -0.44463,0.43288 -0.96431,-0.45932 -1.09318,-1.87684 -5.31534,-2.13511 -7.50911,-0.45933 -0.82685,0.63157 -1.77223,2.26435 -2.10091,3.62839 -0.46339,1.92319 -0.0715,3.00615 1.74526,4.82294 2.52774,2.52772 2.7603,2.59758 5.87137,1.76385 z m 13.09083,-3.19389 c 0,-2.15969 0.33531,-2.72557 1.37799,-2.32547 0.93729,0.35968 1.37798,-0.0496 1.37798,-1.2797 0,-1.45439 -0.6295,-1.80847 -3.21532,-1.80847 -3.19825,0 -3.21527,0.0219 -3.21527,4.13394 0,3.52152 0.27217,4.13396 1.83734,4.13396 1.44304,0 1.83728,-0.61244 1.83728,-2.85426 z m 6.43059,-2.65768 c 0,-4.28706 -0.30621,-5.51193 -1.37799,-5.51193 -1.07177,0 -1.37799,1.22487 -1.37799,5.51193 0,4.28706 0.30622,5.51194 1.37799,5.51194 1.07178,0 1.37799,-1.22488 1.37799,-5.51194 z"
     style="fill:#ffd5d5;stroke-width:0.918657" />
  <path
     id="path630"
     d="m 438.97295,278.77961 v -17.45446 h 27.55967 27.55967 v 17.45446 17.45445 h -27.55967 -27.55967 z m 38.04907,4.95432 c 1.84338,-0.70737 1.89434,-2.19836 0.0751,-2.19836 -0.76555,0 -1.37799,-0.81658 -1.37799,-1.83731 0,-1.02072 0.61244,-1.83731 1.37799,-1.83731 0.75789,0 1.37798,-0.62009 1.37798,-1.37798 0,-0.7579 -0.62009,-1.37798 -1.37798,-1.37798 -0.75789,0 -1.37799,-0.4134 -1.37799,-0.91866 0,-1.32916 -3.43577,-1.13114 -3.98487,0.22966 -0.2768,0.686 -0.49255,0.50107 -0.53588,-0.45932 -0.0438,-0.97104 -0.80008,-1.60765 -1.90984,-1.60765 -1.63316,0 -1.8373,0.61243 -1.8373,5.51193 0,4.8995 0.20414,5.51194 1.8373,5.51194 1.44423,0 1.85421,-0.63877 1.91628,-2.98564 l 0.079,-2.98562 0.80073,2.67766 c 0.4404,1.47272 1.33501,3.01662 1.98802,3.4309 1.44364,0.91585 1.19499,0.89699 2.94946,0.22374 z m -17.83864,-1.2797 c 0,-0.50526 0.82678,-0.91866 1.8373,-0.91866 1.01052,0 1.83732,0.4134 1.83732,0.91866 0,0.50526 0.8716,0.91866 1.9369,0.91866 1.6446,0 1.84314,-0.37357 1.3156,-2.47544 -2.51446,-10.0184 -5.63724,-11.2528 -8.63694,-3.41408 -2.38213,6.22487 -2.37487,5.88952 -0.1275,5.88952 1.01052,0 1.83732,-0.4134 1.83732,-0.91866 z"
     style="fill:#ffd5d5;stroke-width:0.918657" />
  <path
     id="path632"
     d="m 199.20386,278.77961 v -17.45446 h 117.5879 117.58791 v 17.45446 17.45445 H 316.79176 199.20386 Z"
     style="fill:#ffd5d5;stroke-width:0.918657" />
  <path
     id="path634"
     d="m 139.49125,278.77961 v -17.45446 h 27.55966 27.55967 v 17.45446 17.45445 h -27.55967 -27.55966 z m 38.58353,3.57633 c 0,-0.4512 -0.4134,-0.82037 -0.91866,-0.82037 -0.50526,0 -0.91865,-0.82678 -0.91865,-1.83731 0,-1.01052 0.41339,-1.83731 0.91865,-1.83731 1.33604,0 1.12452,-1.76269 -0.3937,-3.28091 -1.66475,-1.66475 -3.85887,-1.68797 -4.48837,-0.0475 -0.93501,2.43661 0.45978,8.73669 2.01134,9.0849 1.90212,0.42689 3.78939,-0.20138 3.78939,-1.26149 z m -18.11036,-0.13137 c 0.33268,-0.91866 0.80483,-0.91866 2.36073,0 1.06967,0.63157 3.39736,1.14832 5.17262,1.14832 h 3.22777 v -5.51194 c 0,-4.8502 -0.21482,-5.51193 -1.7893,-5.51193 -1.51083,0 -1.83253,0.75061 -2.06698,4.82294 l -0.27767,4.82294 -1.68148,-4.82294 c -1.33179,-3.81995 -2.09606,-4.82294 -3.67504,-4.82294 -1.60958,0 -2.36548,1.06164 -3.92452,5.51193 l -1.93096,5.51194 h 2.08448 c 1.14647,0 2.27163,-0.51675 2.50035,-1.14832 z"
     style="fill:#ffd5d5;stroke-width:0.918657" />
  <path
     id="path636"
     d="m 139.49125,239.27742 v -17.45445 h 17.45445 17.45446 v 17.45445 17.45446 H 156.9457 139.49125 Z m 22.04773,3.21529 c 0,-0.86474 -0.87281,-1.37798 -2.34339,-1.37798 h -2.34339 l 2.34339,-3.07234 c 3.37601,-4.42618 3.04284,-5.19556 -2.24989,-5.19556 -3.47047,0 -4.59327,0.33684 -4.59327,1.37798 0,0.78067 0.82353,1.37799 1.89986,1.37799 h 1.89987 l -1.89987,2.66811 c -3.1473,4.41998 -2.57983,5.59979 2.69341,5.59979 3.47048,0 4.59328,-0.33684 4.59328,-1.37799 z"
     style="fill:#ffd5d5;stroke-width:0.918657" />
  <path
     id="path642"
     d="m 139.49125,159.35439 v -17.45446 h 17.45445 17.45446 v 17.45446 17.45445 H 156.9457 139.49125 Z m 16.26962,2.75596 c 0.26425,-1.01052 0.84565,-1.83731 1.29197,-1.83731 0.44634,0 0.81152,0.82679 0.81152,1.83731 0,1.31122 0.61243,1.83731 2.13886,1.83731 1.81711,0 2.30079,-0.7015 3.21529,-4.66336 1.41527,-6.13128 1.38785,-6.3605 -0.76087,-6.3605 -1.37432,0 -1.85559,0.63661 -1.90984,2.5263 l -0.0725,2.5263 -0.92268,-2.5263 c -1.23491,-3.38117 -4.18937,-3.38117 -5.05882,0 l -0.64962,2.5263 -0.55386,-2.29663 c -0.33827,-1.4027 -1.30893,-2.40635 -2.49373,-2.57848 -1.92151,-0.27917 -1.92661,-0.22914 -0.53828,5.28227 1.1209,4.44977 1.76415,5.5641 3.21186,5.5641 1.03767,0 2.01531,-0.78414 2.29073,-1.83731 z"
     style="fill:#ffd5d5;stroke-width:0.918657" />
  <path
     id="path644"
     d="m 99.070402,159.35439 v -17.45446 h 17.454458 17.45445 v 17.45446 17.45445 H 116.52486 99.070402 Z m 22.966388,5.97126 c 0,-0.75789 -0.6991,-1.37799 -1.55357,-1.37799 -1.43216,0 -1.43609,-0.0897 -0.0503,-1.14831 0.82681,-0.63158 1.7722,-2.26436 2.10088,-3.6284 0.85397,-3.54406 -3.20013,-7.59816 -6.74419,-6.74418 -4.58873,1.10569 -6.13801,5.49394 -3.34664,9.47918 0.78654,1.12294 1.9825,2.04171 2.65768,2.04171 0.67518,0 1.46556,0.6201 1.75639,1.37799 0.70235,1.83031 5.17972,1.83031 5.17972,0 z"
     style="fill:#ffd5d5;stroke-width:0.918657" />
  <path
     id="path646"
     d="m 119.28082,198.85657 v -17.45445 h 17.45446 17.45445 v 17.45445 17.45446 h -17.45445 -17.45446 z m 15.61715,3.67463 c 0,-0.50526 0.82679,-0.91866 1.83731,-0.91866 1.01052,0 1.83731,0.4134 1.83731,0.91866 0,0.50526 0.8716,0.91865 1.9369,0.91865 2.15859,0 2.05852,-1.40245 -0.54456,-7.63251 -2.15058,-5.14708 -4.49562,-4.56557 -6.83827,1.69571 -2.31729,6.19352 -2.31443,5.9368 -0.066,5.9368 1.01052,0 1.83731,-0.41339 1.83731,-0.91865 z"
     style="fill:#ffd5d5;stroke-width:0.918657" />
  <path
     id="path648"
     d="m 159.70167,198.85657 v -17.45445 h 17.45445 17.45446 v 17.45445 17.45446 h -17.45446 -17.45445 z m 21.49012,3.14016 c 1.08316,-2.82268 0.52539,-4.06831 -2.42802,-5.42233 l -2.98563,-1.36879 3.07064,0.53916 c 2.63742,0.4631 3.02493,0.29942 2.74659,-1.16015 -0.35481,-1.86054 -3.34932,-2.63137 -6.82932,-1.75794 -1.7028,0.42737 -2.20321,1.16898 -2.20321,3.26516 0,2.25638 0.50179,2.86878 2.98564,3.64385 l 2.98563,0.93165 -2.98563,-0.28695 c -2.38356,-0.22909 -2.98564,0.0515 -2.98564,1.39125 0,1.3705 0.73998,1.67821 4.03567,1.67821 2.83255,0 4.2019,-0.4332 4.59328,-1.45312 z"
     style="fill:#ffd5d5;stroke-width:0.918657" />
  <path
     id="path650"
     d="m 178.99344,159.35439 v -17.45446 h 17.91378 17.91378 v 17.45446 17.45445 h -17.91378 -17.91378 z m 22.04773,3.21529 c 0,-0.85741 -0.86762,-1.37798 -2.29664,-1.37798 -1.26315,0 -2.29664,-0.4134 -2.29664,-0.91866 0,-0.50526 1.03349,-0.91865 2.29664,-0.91865 3.26213,0 3.04663,-2.71511 -0.22966,-2.89361 l -2.52631,-0.13765 2.52631,-0.3827 c 4.3592,-0.66036 3.10347,-3.01663 -1.60765,-3.01663 h -4.13395 v 5.51193 5.51193 h 4.13395 c 3.06218,0 4.13395,-0.35725 4.13395,-1.37798 z"
     style="fill:#ffd5d5;stroke-width:0.918657" />
  <path
     id="path652"
     d="m 199.20386,198.85657 v -17.45445 h 17.45445 17.45446 v 17.45445 17.45446 h -17.45446 -17.45445 z m 21.18947,3.64231 c 1.22318,-0.65463 1.77692,-1.92665 1.77692,-4.08186 0,-3.76383 -2.63736,-5.99103 -7.09433,-5.99103 h -3.01089 v 5.51193 5.51193 h 3.27569 c 1.80163,0 4.0753,-0.42794 5.05261,-0.95097 z"
     style="fill:#ffd5d5;stroke-width:0.918657" />
  <path
     id="path654"
     d="m 219.41428,159.35439 v -17.45446 h 17.45445 17.45446 v 17.45446 17.45445 h -17.45446 -17.45445 z m 16.58399,2.5263 0.0482,-2.06697 1.44185,2.06697 c 0.81908,1.17419 2.39939,2.06697 3.65876,2.06697 2.02774,0 2.11866,-0.17637 1.06549,-2.06697 -0.63329,-1.13684 -1.16457,-3.51386 -1.18064,-5.28227 -0.0289,-3.17931 -0.0781,-3.21843 -4.39283,-3.49529 l -4.36362,-0.28 v 5.56227 c 0,4.94983 0.2023,5.56226 1.83732,5.56226 1.27864,0 1.85196,-0.6285 1.88549,-2.06697 z"
     style="fill:#ffd5d5;stroke-width:0.918657" />
  <path
     id="path656"
     d="m 258.91647,159.35439 v -17.45446 h 17.91378 17.91378 v 17.45446 17.45445 h -17.91378 -17.91378 z m 19.29176,0.45933 c 0,-3.52152 0.2722,-4.13395 1.83732,-4.13395 1.02072,0 1.8373,-0.61244 1.8373,-1.37799 0,-1.05784 -1.17383,-1.37798 -5.0526,-1.37798 -3.87876,0 -5.0526,0.32014 -5.0526,1.37798 0,0.76555 0.81658,1.37799 1.8373,1.37799 1.56512,0 1.83732,0.61243 1.83732,4.13395 0,3.06218 0.35725,4.13394 1.37798,4.13394 1.02073,0 1.37798,-1.07176 1.37798,-4.13394 z"
     style="fill:#ffd5d5;stroke-width:0.918657" />
  <path
     id="path658"
     d="m 239.6247,198.85657 v -17.45445 h 17.45446 17.45445 v 17.45445 17.45446 H 257.07916 239.6247 Z m 17.45446,2.75597 c 0,-1.22487 0.61244,-1.83731 1.83731,-1.83731 2.64588,0 2.44622,-3.42956 -0.22967,-3.94495 -1.77222,-0.34135 -1.70671,-0.41596 0.45933,-0.52322 1.57756,-0.0781 2.52631,-0.6426 2.52631,-1.50309 0,-1.02073 -1.07177,-1.37798 -4.13396,-1.37798 h -4.13394 v 5.51193 c 0,4.89949 0.20414,5.51193 1.8373,5.51193 1.22488,0 1.83732,-0.61244 1.83732,-1.83731 z"
     style="fill:#ffd5d5;stroke-width:0.918657" />
  <path
     id="path660"
     d="m 279.12689,198.85657 v -17.45445 h 17.45446 17.45445 v 17.45445 17.45446 h -17.45445 -17.45446 z m 22.77927,-0.7995 c -0.26748,-5.08194 -0.32332,-5.1767 -3.2154,-5.45646 -3.76785,-0.36448 -6.53338,1.12756 -7.22929,3.90028 -1.13331,4.51548 2.68265,7.90712 8.0157,7.12439 2.66183,-0.39067 2.69724,-0.47182 2.42899,-5.56821 z"
     style="fill:#ffd5d5;stroke-width:0.918657" />
  <path
     id="path662"
     d="m 334.63075,159.35439 c 0,-9.85258 0.13515,-13.88318 0.30033,-8.9569 0.16518,4.9263 0.16518,12.9875 0,17.91379 -0.16518,4.92629 -0.30033,0.89569 -0.30033,-8.95689 z"
     style="fill:#ffd5d5;stroke-width:0.918657" />
  <path
     id="path664"
     d="m 339.75815,159.35439 v -17.45446 h 17.45446 17.45445 v 17.45446 17.45445 h -17.45445 -17.45446 z m 20.94535,3.49089 c 0.60631,-0.60631 1.10239,-3.08668 1.10239,-5.51193 0,-3.79712 -0.25518,-4.40955 -1.83732,-4.40955 -1.57006,0 -1.8373,0.61243 -1.8373,4.2105 0,5.42192 -2.17517,5.10345 -2.57913,-0.37761 -0.22741,-3.08569 -0.63036,-3.83289 -2.06697,-3.83289 -1.52657,0 -1.7845,0.65731 -1.7845,4.54763 0,3.36192 0.41917,4.79177 1.60766,5.484 2.20202,1.28256 6.05992,1.2251 7.39517,-0.11015 z"
     style="fill:#ffd5d5;stroke-width:0.918657" />
  <path
     id="path666"
     d="m 299.33731,159.35439 v -17.45446 h 17.45445 17.45446 v 17.45446 17.45445 h -17.45446 -17.45445 z m 19.2952,2.5263 c 0.002,-1.13684 0.82868,-3.4205 1.83731,-5.07481 2.26163,-3.70942 2.26351,-3.88208 0.0422,-3.88208 -0.98541,0 -2.1978,0.72344 -2.69418,1.60765 -0.85955,1.53109 -0.93202,1.53109 -1.52192,0 -0.36034,-0.93526 -1.5768,-1.60765 -2.90849,-1.60765 h -2.28909 l 1.92805,3.26781 c 1.06043,1.79728 1.92805,4.27766 1.92805,5.51193 0,1.63169 0.50142,2.24412 1.83731,2.24412 1.29191,0 1.83833,-0.61358 1.84075,-2.06697 z"
     style="fill:#ffd5d5;stroke-width:0.918657" />
  <path
     id="path668"
     d="m 319.54773,198.85657 v -17.45445 h 17.45446 17.45445 v 17.45445 17.45446 h -17.45445 -17.45446 z m 15.61715,2.29664 c 0,-1.42902 0.52057,-2.29664 1.37798,-2.29664 0.85741,0 1.37798,0.86762 1.37798,2.29664 0,1.6842 0.48995,2.29664 1.83731,2.29664 1.63317,0 1.83732,-0.61244 1.83732,-5.51193 0,-4.8995 -0.20415,-5.51193 -1.83732,-5.51193 -1.22487,0 -1.83731,0.61243 -1.83731,1.83731 0,1.02073 -0.61243,1.83731 -1.37798,1.83731 -0.76554,0 -1.37798,-0.81658 -1.37798,-1.83731 0,-1.22488 -0.61244,-1.83731 -1.83731,-1.83731 -1.63317,0 -1.83731,0.61243 -1.83731,5.51193 0,4.89949 0.20414,5.51193 1.83731,5.51193 1.34736,0 1.83731,-0.61244 1.83731,-2.29664 z"
     style="fill:#ffd5d5;stroke-width:0.918657" />
  <path
     id="path670"
     d="m 359.04992,198.85657 v -17.45445 h 17.45446 17.45445 v 17.45445 17.45446 h -17.45445 -17.45446 z m 20.57146,3.14016 c 0.30669,-0.79921 0.55762,-3.27958 0.55762,-5.51193 0,-4.02621 -0.0258,-4.05881 -3.2153,-4.05881 -2.2456,0 -3.21529,0.41558 -3.21529,1.37798 0,0.75789 0.62009,1.37798 1.37798,1.37798 0.91866,0 1.37799,0.91866 1.37799,2.75597 0,2.14353 -0.40829,2.75597 -1.83732,2.75597 -1.02073,0 -1.83731,0.61243 -1.83731,1.37798 0,1.95171 6.0395,1.88489 6.79163,-0.0751 z"
     style="fill:#ffd5d5;stroke-width:0.918657" />
  <path
     id="path672"
     d="m 379.26034,159.35439 v -17.45446 h 17.45446 17.45445 v 17.45446 17.45445 H 396.7148 379.26034 Z m 21.12908,3.21529 c 0,-0.75789 -0.4134,-1.37798 -0.91866,-1.37798 -0.50526,0 -0.91865,-1.24019 -0.91865,-2.75597 0,-1.51578 0.41339,-2.75596 0.91865,-2.75596 0.50526,0 0.91866,-0.6201 0.91866,-1.37799 0,-0.99521 -1.02073,-1.37798 -3.67462,-1.37798 -2.65389,0 -3.67462,0.38277 -3.67462,1.37798 0,0.75789 0.41339,1.37799 0.91865,1.37799 0.50526,0 0.91866,1.24018 0.91866,2.75596 0,1.51578 -0.4134,2.75597 -0.91866,2.75597 -0.50526,0 -0.91865,0.62009 -0.91865,1.37798 0,0.99521 1.02073,1.37798 3.67462,1.37798 2.65389,0 3.67462,-0.38277 3.67462,-1.37798 z"
     style="fill:#ffd5d5;stroke-width:0.918657" />
  <path
     id="path674"
     d="m 419.68119,159.35439 v -17.45446 h 17.45445 17.45446 v 17.45446 17.45445 h -17.45446 -17.45445 z m 21.2864,3.07291 c 1.93689,-1.75286 2.20331,-5.71128 0.53167,-7.89966 -3.34545,-4.37958 -10.18177,-1.76439 -10.18177,3.89497 0,5.00852 5.8557,7.43858 9.6501,4.00469 z"
     style="fill:#ffd5d5;stroke-width:0.918657" />
  <path
     id="path676"
     d="m 459.18338,159.35439 v -17.45446 h 17.45445 17.45446 v 17.45446 17.45445 h -17.45446 -17.45445 z m 16.53579,2.75596 c 0,-1.35152 0.61244,-1.83731 2.31634,-1.83731 1.57187,0 2.64867,-0.72939 3.35036,-2.26943 1.45875,-3.20163 -0.33836,-5.07981 -4.86053,-5.07981 h -3.56213 v 5.51193 c 0,4.28706 0.30622,5.51193 1.37798,5.51193 0.76555,0 1.37798,-0.81658 1.37798,-1.83731 z"
     style="fill:#ffd5d5;stroke-width:0.918657" />
  <path
     id="path678"
     d="m 499.60422,159.35439 v -17.45446 h 17.45445 17.45446 v 17.45446 17.45445 h -17.45446 -17.45445 z m 20.21042,14.69849 c 0,-0.50526 -0.6201,-0.91866 -1.37798,-0.91866 -1.05785,0 -1.37799,-1.17383 -1.37799,-5.0526 0,-3.87877 0.32014,-5.05261 1.37799,-5.05261 0.75788,0 1.37798,-0.4134 1.37798,-0.91866 0,-0.50526 -1.24018,-0.91865 -2.75597,-0.91865 h -2.75596 v 6.88992 6.88991 h 2.75596 c 1.51579,0 2.75597,-0.41339 2.75597,-0.91865 z m 0.91866,-17.58284 c 0,-0.57588 -0.68476,-1.54776 -1.52168,-2.15973 -1.92843,-1.4101 -1.8704,-6.91729 0.088,-8.34929 2.15748,-1.57758 1.73087,-2.38001 -1.0926,-2.05513 -1.83152,0.21074 -2.60906,0.87459 -2.82722,2.41383 -0.1655,1.16773 -0.88895,2.3488 -1.60765,2.62459 -1.73572,0.66606 -1.67997,3.06084 0.0713,3.06084 0.83116,0 1.37798,0.8506 1.37798,2.14352 0,1.17894 0.2756,2.41913 0.61244,2.75597 1.02596,1.02596 4.8995,0.68236 4.8995,-0.4346 z"
     style="fill:#ffd5d5;stroke-width:0.918657" />
  <path
     id="path680"
     d="m 539.10641,159.35439 v -17.45446 h 17.45445 17.45446 v 17.45446 17.45445 h -17.45446 -17.45445 z m 20.21042,8.72723 v -6.88992 h -2.75597 c -1.51578,0 -2.75597,0.41339 -2.75597,0.91865 0,0.50526 0.6201,0.91866 1.37798,0.91866 1.05785,0 1.37799,1.17384 1.37799,5.05261 0,3.87877 -0.32014,5.0526 -1.37799,5.0526 -0.75788,0 -1.37798,0.4134 -1.37798,0.91866 0,0.50526 1.24019,0.91865 2.75597,0.91865 h 2.75597 z m -1.0873,-13.55017 c 0.16637,-1.44597 0.85386,-2.5263 1.60764,-2.5263 1.7053,0 1.71334,-2.4073 0.0102,-3.06084 -0.7187,-0.27579 -1.44215,-1.45686 -1.60765,-2.62459 -0.21816,-1.53924 -0.9957,-2.20309 -2.82722,-2.41383 -2.77719,-0.31955 -3.23969,0.4519 -1.21503,2.02672 2.20499,1.71507 2.25874,8.8285 0.0667,8.8285 -0.75789,0 -1.37798,0.64755 -1.37798,1.439 0,1.02786 0.72181,1.35595 2.5263,1.14832 1.98427,-0.22831 2.58867,-0.83272 2.81699,-2.81698 z"
     style="fill:#ffd5d5;stroke-width:0.918657" />
  <path
     id="path682"
     d="m 518.89598,198.85657 v -17.45445 h 17.91379 17.91378 v 17.45445 17.45446 h -17.91378 -17.91379 z m 19.29177,4.59328 c 0,-1.83731 -0.45933,-2.75596 -1.37798,-2.75596 -0.91866,0 -1.37799,0.91865 -1.37799,2.75596 0,1.83732 0.45933,2.75597 1.37799,2.75597 0.91865,0 1.37798,-0.91865 1.37798,-2.75597 z m -1.83731,-17.91378 c 0,-1.42902 -0.52057,-2.29664 -1.37798,-2.29664 -0.85742,0 -1.37798,0.86762 -1.37798,2.29664 0,1.42902 0.52056,2.29664 1.37798,2.29664 0.85741,0 1.37798,-0.86762 1.37798,-2.29664 z m 3.67462,0 c 0,-1.42902 -0.52057,-2.29664 -1.37798,-2.29664 -0.85741,0 -1.37798,0.86762 -1.37798,2.29664 0,1.42902 0.52057,2.29664 1.37798,2.29664 0.85741,0 1.37798,-0.86762 1.37798,-2.29664 z"
     style="fill:#ffd5d5;stroke-width:0.918657" />
  <path
     id="path684"
     d="m 479.39379,198.85657 v -17.45445 h 17.45446 17.45446 v 17.45445 17.45446 h -17.45446 -17.45446 z m 18.22566,14.19594 c 1.4933,-3.27743 1.33997,-4.09072 -0.7712,-4.09072 -1.01052,0 -1.84295,0.51674 -1.84986,1.14832 -0.007,0.63157 -0.2618,2.07846 -0.56647,3.21529 -0.78879,2.94336 1.82403,2.71968 3.18753,-0.27289 z m 1.06611,-7.30602 c 0,-0.76554 -0.81658,-1.37798 -1.83731,-1.37798 -1.02073,0 -1.83731,0.61244 -1.83731,1.37798 0,0.76555 0.81658,1.37798 1.83731,1.37798 1.02073,0 1.83731,-0.61243 1.83731,-1.37798 z m 0,-12.40185 c 0,-1.22487 -0.61243,-1.83731 -1.83731,-1.83731 -1.22487,0 -1.83731,0.61244 -1.83731,1.83731 0,1.22488 0.61244,1.83731 1.83731,1.83731 1.22488,0 1.83731,-0.61243 1.83731,-1.83731 z m 0,-5.51193 c 0,-1.22487 -0.61243,-1.83731 -1.83731,-1.83731 -1.22487,0 -1.83731,0.61244 -1.83731,1.83731 0,1.22487 0.61244,1.83731 1.83731,1.83731 1.22488,0 1.83731,-0.61244 1.83731,-1.83731 z"
     style="fill:#ffd5d5;stroke-width:0.918657" />
  <path
     id="path686"
     d="m 438.97295,198.85657 v -17.45445 h 17.91379 17.91378 v 17.45445 17.45446 h -17.91378 -17.91379 z m 22.96639,3.2153 c 0,-0.91866 -0.91866,-1.37798 -2.75596,-1.37798 -2.6539,0 -2.75597,-0.15312 -2.75597,-4.13395 0,-3.06219 -0.35726,-4.13395 -1.37799,-4.13395 -1.07176,0 -1.37798,1.22487 -1.37798,5.51193 v 5.51193 h 4.13395 c 3.06219,0 4.13395,-0.35725 4.13395,-1.37798 z"
     style="fill:#ffd5d5;stroke-width:0.918657" />
  <path
     id="path688"
     d="m 399.47076,198.85657 v -17.45445 h 17.45446 17.45445 v 17.45445 17.45446 h -17.45445 -17.45446 z m 16.56502,2.98564 c 0.0278,-1.5311 0.0873,-1.5311 1.2496,0 1.12451,1.48137 5.15177,2.31277 5.15177,1.06355 0,-0.29925 -0.83576,-1.60659 -1.85724,-2.9052 l -1.85725,-2.36111 1.85725,-1.97694 c 1.02148,-1.08733 1.85724,-2.26036 1.85724,-2.60674 0,-1.1999 -3.07831,-0.62282 -4.7506,0.89058 -1.56325,1.41472 -1.67998,1.41472 -1.67998,0 0,-0.90793 -0.74012,-1.52036 -1.83732,-1.52036 -1.63316,0 -1.83731,0.61243 -1.83731,5.51193 0,4.89949 0.20415,5.51193 1.83731,5.51193 1.12626,0 1.84862,-0.62217 1.86653,-1.60764 z"
     style="fill:#ffd5d5;stroke-width:0.918657" />
  <path
     id="path690"
     d="m 419.68119,239.27742 v -17.45445 h 17.45445 17.45446 v 17.45445 17.45446 h -17.45446 -17.45445 z m 18.22565,13.27728 c 1.39372,-3.05888 1.3697,-3.17207 -0.67291,-3.17207 -1.71787,0 -2.85426,1.67579 -2.85426,4.20909 0,2.1648 2.38825,1.46263 3.52717,-1.03702 z m 3.82208,-19.10108 c 0,-0.67679 -1.13684,-1.77708 -2.5263,-2.4451 l -2.52631,-1.21456 2.52631,-0.94754 c 1.46387,-0.54906 2.5263,-1.64 2.5263,-2.59411 0,-1.55952 -0.24464,-1.55014 -4.62729,0.17734 -2.54501,1.00314 -4.81868,1.8239 -5.0526,1.8239 -0.23393,0 -0.42532,0.63705 -0.42532,1.41566 0,0.78092 1.75056,2.19345 3.90428,3.1504 4.73401,2.10341 6.20093,2.25339 6.20093,0.63401 z"
     style="fill:#ffd5d5;stroke-width:0.918657" />
  <path
     id="path692"
     d="m 459.18338,239.27742 v -17.45445 h 17.45445 17.45446 v 17.45445 17.45446 h -17.45446 -17.45445 z m 19.29176,11.4832 c 0,-0.76555 -0.81658,-1.37799 -1.83731,-1.37799 -1.02073,0 -1.83731,0.61244 -1.83731,1.37799 0,0.76554 0.81658,1.37798 1.83731,1.37798 1.02073,0 1.83731,-0.61244 1.83731,-1.37798 z m -0.57611,-17.95678 c 4.36305,-1.92998 5.48934,-3.9765 2.64308,-4.8026 -0.8842,-0.25663 -3.15787,-1.13719 -5.0526,-1.95679 -3.26496,-1.41231 -3.44496,-1.4028 -3.44496,0.18212 0,0.98219 1.04255,2.06333 2.5263,2.61985 l 2.52631,0.94754 -2.52631,1.21456 c -1.38946,0.66802 -2.5263,1.76831 -2.5263,2.4451 0,1.65448 0.86148,1.55887 5.85448,-0.64978 z"
     style="fill:#ffd5d5;stroke-width:0.918657" />
  <path
     id="path694"
     d="m 499.60422,239.27742 v -17.45445 h 17.45445 17.45446 v 17.45445 17.45446 h -17.45446 -17.45445 z m 17.8346,10.65546 c 3.37585,-7.63338 3.6401,-8.81815 1.96682,-8.81815 -0.87286,0 -2.32622,1.97795 -3.64577,4.96168 -3.37585,7.63339 -3.6401,8.81815 -1.96681,8.81815 0.87285,0 2.32621,-1.97794 3.64576,-4.96168 z m 0.53851,-17.44709 c 0,-1.20909 0.64778,-2.44693 1.43951,-2.75075 0.93874,-0.36023 1.33821,-1.43303 1.14832,-3.08391 -0.25297,-2.19923 -0.74339,-2.56895 -3.73615,-2.81664 -2.90975,-0.24083 -3.44496,-0.004 -3.44496,1.52164 0,1.35448 0.45993,1.68648 1.83731,1.32629 2.12088,-0.55462 2.52295,1.11146 0.45933,1.90334 -0.80553,0.30912 -1.37798,1.68566 -1.37798,3.31358 0,2.17236 0.40406,2.7848 1.83731,2.7848 1.32546,0 1.83731,-0.61244 1.83731,-2.19835 z"
     style="fill:#ffd5d5;stroke-width:0.918657" />
  <path
     id="path696"
     d="m 379.26034,239.27742 v -17.45445 h 17.45446 17.45445 v 17.45445 17.45446 H 396.7148 379.26034 Z m 15.28494,3.21529 c 0.29083,-0.75789 1.27689,-1.37798 2.19125,-1.37798 0.91436,0 1.87098,-0.51675 2.12582,-1.14832 0.25486,-0.63157 0.496,-0.0115 0.53589,1.37799 0.046,1.60093 0.57727,2.5263 1.45051,2.5263 1.07176,0 1.37798,-1.22488 1.37798,-5.51194 0,-4.92863 -0.19757,-5.51193 -1.86691,-5.51193 -1.08781,0 -2.18076,0.84839 -2.61895,2.03294 l -0.75204,2.03294 -1.08799,-2.03294 c -0.5984,-1.11812 -1.90024,-2.03294 -2.89299,-2.03294 -1.59366,0 -1.80499,0.64534 -1.80499,5.51193 0,4.33727 0.29982,5.51194 1.40682,5.51194 0.77375,0 1.64477,-0.6201 1.9356,-1.37799 z"
     style="fill:#ffd5d5;stroke-width:0.918657" />
  <path
     id="path698"
     d="m 339.75815,239.27742 v -17.45445 h 17.45446 17.45445 v 17.45445 17.45446 h -17.45445 -17.45446 z m 15.64159,2.06698 0.0244,-2.52631 1.56632,2.52631 c 0.86147,1.38946 2.29735,2.5263 3.19085,2.5263 1.3731,0 1.62453,-0.85309 1.62453,-5.51194 0,-4.28706 -0.30622,-5.51193 -1.37798,-5.51193 -0.8819,0 -1.39123,0.90949 -1.41477,2.5263 l -0.0368,2.52631 -1.37054,-2.52631 c -0.92409,-1.70336 -2.10911,-2.5263 -3.63784,-2.5263 -2.15871,0 -2.2673,0.26399 -2.2673,5.51193 0,4.8995 0.20415,5.51194 1.83731,5.51194 1.38598,0 1.84331,-0.62059 1.86176,-2.5263 z"
     style="fill:#ffd5d5;stroke-width:0.918657" />
  <path
     id="path700"
     d="m 299.33731,239.27742 v -17.45445 h 17.45445 17.45446 v 17.45445 17.45446 h -17.45446 -17.45445 z m 21.49271,3.17975 c 0.95186,-0.95185 1.24736,-2.37705 0.90478,-4.36361 -0.88097,-5.10851 -1.02253,-5.24673 -5.37353,-5.24673 h -4.16278 v 5.51193 5.51194 h 3.609 c 2.02347,0 4.23001,-0.62101 5.02253,-1.41353 z"
     style="fill:#ffd5d5;stroke-width:0.918657" />
  <path
     id="path702"
     d="m 258.91647,239.27742 v -17.45445 h 17.91378 17.91378 v 17.45445 17.45446 h -17.91378 -17.91378 z m 21.82728,-0.91866 c 1.94577,-5.40783 1.94928,-5.51193 0.18582,-5.51193 -1.16131,0 -2.23581,1.05662 -3.03617,2.98563 l -1.23877,2.98563 -0.67417,-2.98563 c -0.52643,-2.33133 -1.14782,-2.98563 -2.83546,-2.98563 h -2.16129 l 2.00462,5.51111 c 1.561,4.29154 2.42148,5.5113 3.8884,5.51194 1.46988,5.6e-4 2.31957,-1.2103 3.86702,-5.51112 z"
     style="fill:#ffd5d5;stroke-width:0.918657" />
  <path
     id="path704"
     d="m 219.41428,239.27742 v -17.45445 h 17.45445 17.45446 v 17.45445 17.45446 h -17.45446 -17.45445 z m 21.9063,1.88126 c 0.27699,-1.96287 0.13077,-2.09738 -1.13662,-1.04554 -2.05112,1.70228 -4.42748,0.5456 -4.06771,-1.97993 0.23193,-1.62819 0.83506,-2.0341 2.82039,-1.89813 1.94561,0.13324 2.52537,-0.23584 2.52537,-1.60765 0,-1.44931 -0.6495,-1.7806 -3.49089,-1.7806 -4.2686,0 -5.69566,1.29554 -5.69566,5.17072 0,3.88828 2.20902,6.02801 5.85682,5.67309 2.25039,-0.21895 2.93907,-0.76586 3.1883,-2.53196 z"
     style="fill:#ffd5d5;stroke-width:0.918657" />
  <path
     d="m 178.99295,221.82297 v 17.45394 17.45504 h 17.91476 17.91366 v -17.45504 -17.45394 h -17.91366 z m 11.81773,11.02337 h 2.31395 c 1.27246,0 2.68615,0.6658 3.14123,1.479 0.76051,1.35894 0.87304,1.35894 1.39452,0 0.31205,-0.8132 1.40716,-1.479 2.43354,-1.479 2.18908,0 2.29992,0.72823 0.47728,3.13683 -1.18157,1.56145 -1.1191,2.10176 0.56285,4.82321 l 1.89373,3.06442 h -2.32492 c -1.27925,0 -2.73262,-0.72316 -3.229,-1.60737 -0.85955,-1.53109 -0.93189,-1.53109 -1.52179,0 -0.36029,0.93512 -1.57634,1.60736 -2.90753,1.60737 h -2.28872 l 1.85972,-2.93825 c 1.85999,-2.93768 1.85979,-2.93892 0.0274,-5.51223 z"
     style="fill:#ffd5d5;stroke-width:0.918657"
     id="path706" />
  <path
     id="path712"
     d="m 574.01281,236.76293 c -2.15086,-0.59328 -2.6161,-1.17633 -1.32907,-1.66566 0.92741,-0.3526 2.07565,-0.17555 3.49354,0.53869 0.78281,0.39433 0.84252,0.52717 0.49024,1.09119 -0.2206,0.35322 -0.47552,0.62509 -0.56653,0.60417 -0.091,-0.0209 -1.03071,-0.2767 -2.08818,-0.56839 z"
     style="fill:#ffd5d5;stroke-width:0.324794" />
  <path
     id="path714"
     d="m 435.46602,160.78641 c -0.4822,-0.39046 -0.77236,-1.06565 -0.88414,-2.05733 -0.41971,-3.72363 2.96518,-5.29344 4.33659,-2.01119 1.19991,2.87177 -1.29683,5.81403 -3.45245,4.06852 z"
     style="fill:#ffd5d5;stroke-width:0.324794" />
  <path
     id="path716"
     d="m 455.9892,129.79766 c -0.48173,-0.48172 -0.522,-4.60256 -0.0535,-5.47789 0.18493,-0.34553 0.61825,-0.62823 0.96296,-0.62823 0.3447,0 0.77803,0.2827 0.96295,0.62823 0.4352,0.81319 0.4352,4.42622 0,5.23941 -0.37893,0.70804 -1.28714,0.82371 -1.87237,0.23848 z"
     style="fill:#ffd5d5;stroke-width:0.324794" />
  <path
     id="path718"
     d="m 415.6337,126.10809 c -0.65467,-0.78884 -0.0181,-2.22982 1.03965,-2.35326 0.7017,-0.0819 0.9122,0.0816 1.212,0.94165 0.19954,0.57242 0.36281,1.23818 0.36281,1.47948 0,0.62068 -2.08799,0.56648 -2.61446,-0.0679 z"
     style="fill:#ffd5d5;stroke-width:0.324794" />
  <path
     id="path720"
     d="m 296.32555,130.09257 c -0.29672,-0.21696 -0.62835,-0.94209 -0.73696,-1.61139 l -0.19748,-1.21691 h 1.16785 c 0.84265,0 1.26648,0.1843 1.52206,0.66186 0.71366,1.33348 -0.62884,2.99025 -1.75547,2.16644 z"
     style="fill:#ffd5d5;stroke-width:0.324794" />
  <path
     id="path722"
     d="m 295.8009,125.29731 c 0,-0.41373 0.91662,-1.21887 1.65413,-1.45295 0.73001,-0.2317 3.07445,0.0988 2.78119,0.39203 -0.34013,0.34013 -4.43532,1.31969 -4.43532,1.06092 z"
     style="fill:#ffd5d5;stroke-width:0.324794" />
  <path
     id="path724"
     d="m 135.88131,111.50238 c -0.5754,-1.49946 0.0525,-3.40094 1.12307,-3.40094 0.59138,0 0.64499,0.17974 0.55696,1.86756 -0.0844,1.61906 -0.18915,1.88066 -0.78685,1.96594 -0.40665,0.058 -0.77302,-0.11941 -0.89318,-0.43256 z"
     style="fill:#ffd5d5;stroke-width:0.324794" />
  <path
     id="path726"
     d="m 139.5751,109.38466 c 0,-2.5563 0.0671,-2.93105 0.46553,-2.60037 1.15846,0.96143 1.22901,5.26076 0.0899,5.48012 -0.49159,0.0947 -0.55547,-0.23653 -0.55547,-2.87975 z"
     style="fill:#ffd5d5;stroke-width:0.324794" />
  <path
     id="path728"
     d="m 139.5751,114.78318 c 0,-0.36597 -0.364,-0.42616 -1.72657,-0.28553 -3.0534,0.31514 -5.09168,-1.46525 -5.09168,-4.44745 0,-3.32542 2.9479,-5.3851 6.03016,-4.21323 1.25069,0.47551 0.78981,0.71158 -1.33958,0.68615 -1.61431,-0.0193 -1.96,0.0945 -2.78104,0.91556 -0.80387,0.80387 -0.93759,1.18966 -0.93759,2.70513 0,2.45307 0.85474,3.54364 2.72045,3.47102 0.73671,-0.0286 2.20536,-0.0386 3.26366,-0.022 l 1.92418,0.0301 -0.76282,0.81198 c -0.85946,0.91486 -1.29917,1.03273 -1.29917,0.34826 z"
     style="fill:#ffd5d5;stroke-width:0.324794" />
  <path
     id="path730"
     d="m 215.25204,198.23171 v -3.08554 h 0.99937 c 1.24982,0 2.89816,1.54395 2.89816,2.71462 0,1.47565 -0.60728,2.49755 -1.77387,2.98498 -2.078,0.86824 -2.12366,0.81205 -2.12366,-2.61406 z"
     style="fill:#ffd5d5;stroke-width:0.324794" />
  <path
     id="path732"
     d="m 296.09755,200.90093 c -1.38035,-1.0598 -1.69071,-3.50965 -0.61749,-4.87404 1.01939,-1.29593 2.32344,-1.41431 4.39813,-0.39926 2.56017,1.25257 2.35938,1.79209 -0.66695,1.79209 h -2.43596 v 1.13679 c 0,1.04655 0.0773,1.13677 0.97438,1.13677 0.82281,0 0.97439,0.12631 0.97439,0.81199 0,0.70167 -0.14341,0.81058 -1.05559,0.80165 -0.58056,-0.006 -1.28747,-0.18837 -1.57091,-0.40599 z"
     style="fill:#ffd5d5;stroke-width:0.324794" />
  <path
     id="path734"
     d="m 115.42091,160.63683 c -1.93355,-2.12938 -0.4667,-6.25381 2.00365,-5.63379 1.16547,0.29251 1.90498,1.91279 1.7006,3.72604 -0.2724,2.41678 -2.29579,3.45886 -3.70425,1.90775 z"
     style="fill:#ffd5d5;stroke-width:0.324794" />
  <path
     id="path736"
     d="m 75.372034,159.41886 v -1.98992 l 1.049715,0.10177 c 0.808232,0.0784 1.121529,0.30726 1.361877,0.99496 0.50358,1.4409 -0.0925,2.65825 -1.361877,2.78133 l -1.049715,0.10177 z"
     style="fill:#ffd5d5;stroke-width:0.324794" />
  <path
     id="path738"
     d="m 65.412505,161.18339 c -0.24048,-0.62668 0.108535,-0.96754 1.271297,-1.2416 0.785701,-0.18518 0.893183,-0.11624 0.893183,0.57291 0,1.14105 -1.773022,1.68881 -2.16448,0.66869 z"
     style="fill:#ffd5d5;stroke-width:0.324794" />
  <path
     id="path740"
     d="m 71.615879,201.21718 c -0.09912,-0.25831 -0.134939,-1.18187 -0.0796,-2.05235 0.08885,-1.39761 0.193457,-1.59581 0.894411,-1.69475 1.391864,-0.19646 2.225791,2.00619 1.236173,3.26511 -0.600652,0.7641 -1.831713,1.05341 -2.050989,0.48199 z"
     style="fill:#ffd5d5;stroke-width:0.324794" />
  <path
     id="path742"
     d="m 61.519125,201.14383 c -0.243854,-0.63547 0.375725,-1.11368 1.452138,-1.12078 0.596593,-0.004 0.731777,0.14711 0.649588,0.72581 -0.131646,0.92694 -1.778806,1.23648 -2.101726,0.39497 z"
     style="fill:#ffd5d5;stroke-width:0.324794" />
  <path
     id="path744"
     d="m 58.863347,198.67211 c 0.08123,-0.56338 0.454463,-0.84035 1.568175,-1.16374 1.426212,-0.41412 3.247938,-0.29196 3.247938,0.21781 0,0.14016 -0.660226,0.34533 -1.46717,0.45594 -0.806943,0.1106 -1.914554,0.43245 -2.461358,0.71521 -0.973418,0.50338 -0.991961,0.49867 -0.887585,-0.22522 z"
     style="fill:#ffd5d5;stroke-width:0.324794" />
  <path
     id="path746"
     d="m 79.350757,201.15782 c -0.725817,-0.31547 -1.055579,-0.67905 -1.055579,-1.16383 0,-0.60111 0.07449,-0.64322 0.505316,-0.28567 0.277924,0.23066 1.183992,0.5917 2.013481,0.80232 0.829495,0.21062 1.5643,0.55134 1.632913,0.75717 0.175324,0.52597 -1.79389,0.45602 -3.096131,-0.10999 z"
     style="fill:#ffd5d5;stroke-width:0.324794" />
  <path
     id="path748"
     d="m 84.138763,198.73112 c -0.266469,-0.14513 -1.105654,-0.36625 -1.864862,-0.49138 -1.40834,-0.23213 -1.78725,-0.68427 -0.868796,-1.03671 0.719408,-0.27606 3.057994,0.48012 3.280848,1.06087 0.242437,0.63178 0.05258,0.79387 -0.54719,0.46722 z"
     style="fill:#ffd5d5;stroke-width:0.324794" />
  <path
     id="path750"
     d="m 375.81107,129.8674 c -0.53446,-0.53445 -0.58358,-0.77918 -0.28704,-1.43001 0.33586,-0.73713 0.41995,-0.75907 1.37336,-0.35819 1.43436,0.6031 1.84003,1.37014 1.03917,1.96484 -0.85071,0.63171 -1.35942,0.58944 -2.12549,-0.17664 z"
     style="fill:#ffd5d5;stroke-width:0.324794" />
  <path
     id="path752"
     d="m 376.37467,125.12896 c -1.08405,-0.58717 -1.13642,-1.04171 -0.1624,-1.40951 0.99014,-0.37388 1.93353,0.1611 1.80608,1.0242 -0.13068,0.88503 -0.54275,0.98162 -1.64368,0.38531 z"
     style="fill:#ffd5d5;stroke-width:0.324794" />
  <path
     id="path754"
     d="m 215.39188,127.02068 c 0.24093,-0.31262 0.77038,-0.98154 1.17655,-1.48649 l 0.73849,-0.91811 v 1.48649 1.48649 h -1.17655 c -1.07087,0 -1.1372,-0.0511 -0.73849,-0.56838 z"
     style="fill:#ffd5d5;stroke-width:0.324794" />
  <path
     id="path756"
     d="m 260.9586,112.51707 c -0.0963,-0.25095 -0.12825,-0.9452 -0.071,-1.54277 0.0784,-0.81882 0.27399,-1.11074 0.79372,-1.1849 0.76667,-0.10938 1.13149,0.90693 0.85142,2.37196 -0.17083,0.89369 -1.27219,1.14257 -1.57414,0.35571 z"
     style="fill:#ffd5d5;stroke-width:0.324794" />
  <path
     id="path758"
     d="m 251.302,108.85929 c -0.38172,-0.38173 -0.23124,-2.61488 0.20036,-2.97306 0.90745,-0.75312 1.77089,0.89467 1.22339,2.33471 -0.3097,0.81457 -0.95721,1.10489 -1.42375,0.63835 z"
     style="fill:#ffd5d5;stroke-width:0.324794" />
  <path
     id="path760"
     d="m 217.63171,107.93904 c 0,-0.86874 0.12461,-0.92214 1.13678,-0.48719 0.35727,0.15352 0.45125,0.28941 0.20885,0.30196 -0.2548,0.0132 -0.36187,0.22837 -0.25379,0.51002 0.12716,0.33139 -0.0175,0.4872 -0.45245,0.4872 -0.46549,0 -0.63939,-0.22085 -0.63939,-0.81199 z"
     style="fill:#ffd5d5;stroke-width:0.324794" />
  <path
     id="path762"
     d="m 214.22137,111.99896 c -0.62627,-0.26912 -0.62405,-0.27996 0.062,-0.30196 0.82631,-0.0265 1.26774,-0.54076 0.67077,-0.78143 -0.2244,-0.0905 -0.0792,-0.17604 0.32278,-0.19014 0.56981,-0.02 0.73078,0.15321 0.73078,0.78634 0,0.86396 -0.55643,1.01571 -1.78637,0.48719 z"
     style="fill:#ffd5d5;stroke-width:0.324794" />
  <path
     id="path764"
     d="m 334.94723,112.2588 c -0.40747,-0.40746 -0.54604,-1.8838 -0.17682,-1.8838 0.38344,0 2.38541,1.64937 2.38541,1.96528 0,0.44441 -1.74717,0.37995 -2.20859,-0.0815 z"
     style="fill:#ffd5d5;stroke-width:0.324794" />
  <path
     id="path766"
     d="m 335.27608,107.06616 c -0.51926,-0.51926 -0.50029,-1.12792 0.0416,-1.33588 0.64609,-0.24792 1.26841,0.25548 1.13929,0.92159 -0.1432,0.73871 -0.67125,0.92396 -1.18092,0.41429 z"
     style="fill:#ffd5d5;stroke-width:0.324794" />
  <path
     id="path768"
     d="m 48.820144,63.362143 3.816327,-0.102863 v -1.099404 c 0,-0.604673 -0.182696,-1.173125 -0.405992,-1.263227 -0.245389,-0.09902 -0.184109,-0.173964 0.154909,-0.189462 0.308496,-0.0141 0.796262,-0.384846 1.083923,-0.823873 0.517292,-0.789488 0.530347,-0.791406 1.191799,-0.17517 0.367828,0.342684 1.306893,0.718753 2.08681,0.835709 1.555722,0.233294 2.087581,0.672307 1.218514,1.005799 -0.521448,0.200099 -2.109208,-0.122193 -3.501249,-0.710702 -0.545777,-0.230736 -0.594467,-0.122786 -0.481048,1.066524 0.118134,1.238753 0.06618,1.335248 -0.813733,1.51123 -0.516959,0.103392 -2.565924,0.156556 -4.553256,0.118144 l -3.613331,-0.06984 z"
     style="fill:#ffd5d5;stroke-width:0.324794" />
  <path
     id="path770"
     d=""
     style="fill:#ffd5d5;stroke-width:0.324794" />
  <path
     id="path772"
     d="m 60.335676,58.919531 c -0.32067,-0.243198 -1.24291,-0.541133 -2.049421,-0.662077 -1.459817,-0.218913 -1.833455,-0.865623 -0.63441,-1.098066 1.037561,-0.201139 3.429264,0.914944 3.429264,1.600258 0,0.731431 0.0064,0.730064 -0.745433,0.159885 z"
     style="fill:#ffd5d5;stroke-width:0.324794" />
  <path
     id="path774"
     d="m 66.064805,61.332327 c -0.677047,-0.273086 -1.370262,-2.098924 -0.954681,-2.514505 0.106318,-0.106317 0.193304,0.042 0.193304,0.329602 0,0.769091 1.278894,1.532465 2.589421,1.54563 l 1.145708,0.01151 -0.811984,0.464172 c -0.932535,0.533084 -1.196233,0.55304 -2.161768,0.163592 z"
     style="fill:#ffd5d5;stroke-width:0.324794" />
  <path
     id="path776"
     d="M 39.64472,59.219973 V 41.843506 H 56.85879 74.07286 V 59.219973 76.59644 H 56.85879 39.64472 Z m 21.374452,4.215053 c 0.05526,-0.04696 0.128331,-1.697013 0.162397,-3.666777 0.05856,-3.385914 0.01896,-3.627139 -0.725465,-4.419587 -0.863938,-0.919672 -1.9764,-1.059243 -3.988532,-0.500406 -1.479258,0.410839 -2.473211,1.616589 -2.747709,3.333205 -0.297346,1.859501 -1.069348,2.500084 -3.012986,2.500084 -1.631433,0 -2.41525,-0.491598 -1.60355,-1.005721 0.246182,-0.155929 0.821601,-0.285745 1.278708,-0.28848 0.457108,-0.0028 1.11149,-0.209996 1.454181,-0.460578 0.953061,-0.696896 0.312799,-2.189009 -1.155477,-2.692804 l -1.129809,-0.38766 0.974382,-0.02312 c 1.515631,-0.03596 2.59835,-0.722303 2.59835,-1.647105 0,-1.11564 -1.512659,-1.57307 -5.277899,-1.596045 l -3.004343,-0.01834 v 5.708237 5.708237 l 8.038646,-0.22888 c 4.421256,-0.125885 8.083853,-0.267306 8.139106,-0.314269 z m 8.109513,-0.01115 c 0.747761,-0.523753 0.930978,-1.584083 0.414712,-2.400096 -0.163454,-0.258362 -0.986373,-0.550676 -1.828705,-0.649587 -2.935589,-0.344712 -2.615473,-2.290998 0.376812,-2.290998 1.847892,0 2.404418,-1.303384 1.10945,-2.59835 -1.315053,-1.315053 -5.220314,-0.607708 -6.375085,1.154695 -0.876664,1.337957 -0.815275,5.115843 0.09797,6.029086 1.203315,1.203314 4.919374,1.65563 6.204848,0.75525 z"
     style="fill:#ffd5d5;stroke-width:0.324794" />
  <path
     id="path778"
     d="m 73.9365,236.73645 c -2.151521,-0.56382 -2.620947,-1.14801 -1.319959,-1.64264 0.943666,-0.35878 3.066611,0.0529 4.136206,0.80206 0.556891,0.39006 0.548897,0.43597 -0.15295,0.87801 -0.646418,0.40714 -0.985017,0.40238 -2.663297,-0.0374 z"
     style="fill:#ffd5d5;stroke-width:0.324794" />
  <path
     id="path780"
     d="m 59.132347,282.38661 c 0,-1.03824 -0.0624,-1.10064 -1.05558,-1.05558 l -1.05558,0.0479 -0.0967,-2.02995 -0.0967,-2.02997 h 1.152276 c 1.063778,0 1.152277,-0.0748 1.152277,-0.97438 0,-0.89704 -0.09022,-0.97438 -1.136779,-0.97438 -0.625228,0 -1.136778,-0.1632 -1.136778,-0.36267 0,-0.21761 0.292313,-0.28434 0.730786,-0.16684 0.401932,0.10772 1.315415,0.20938 2.029962,0.22592 0.714546,0.0165 1.116478,0.1038 0.893182,0.1939 -0.2942,0.11872 -0.405992,1.27429 -0.405992,4.19668 0,3.36823 -0.08029,4.03286 -0.48719,4.03286 -0.33746,0 -0.487191,-0.33914 -0.487191,-1.10348 z"
     style="fill:#ffd5d5;stroke-width:0.324794" />
</svg>
