<svg height="512" viewBox="0 0 512 512" width="512" xmlns="http://www.w3.org/2000/svg"><g><path d="m476 56h-440a28.031 28.031 0 0 0 -28 28v344a28.031 28.031 0 0 0 28 28h440a28.031 28.031 0 0 0 28-28v-344a28.031 28.031 0 0 0 -28-28zm12 372a12.01 12.01 0 0 1 -12 12h-440a12.01 12.01 0 0 1 -12-12v-36h464zm0-52h-464v-256h464zm0-272h-464v-20a12.01 12.01 0 0 1 12-12h440a12.01 12.01 0 0 1 12 12z"/><path d="m40 96h8a8 8 0 0 0 0-16h-8a8 8 0 0 0 0 16z"/><path d="m72 96h8a8 8 0 0 0 0-16h-8a8 8 0 0 0 0 16z"/><path d="m104 96h8a8 8 0 0 0 0-16h-8a8 8 0 0 0 0 16z"/><path d="m256 168a88 88 0 1 0 88 88 88.1 88.1 0 0 0 -88-88zm0 160a72 72 0 1 1 72-72 72.083 72.083 0 0 1 -72 72z"/><path d="m292.44 249.34-48-32a8.009 8.009 0 0 0 -12.44 6.66v64a8.006 8.006 0 0 0 12.44 6.66l48-32a8.01 8.01 0 0 0 0-13.32zm-44.44 23.71v-34.1l25.58 17.05z"/><path d="m440 408h-320a8 8 0 0 0 -16 0h-32a8 8 0 0 0 0 16h32a8 8 0 0 0 16 0h320a8 8 0 0 0 0-16z"/></g></svg>